<mxfile host="app.diagrams.net" modified="2024-07-10T01:30:50.119Z" agent="Mozilla/5.0 (Windows NT 10.0; Win64; x64) AppleWebKit/537.36 (KHTML, like Gecko) Chrome/126.0.0.0 Safari/537.36" etag="glLMTsrLBKgJNfyRnlz9" version="24.5.5" type="github">
  <diagram name="Page-1" id="wONtj9fE32yLhLCyFKd6">
    <mxGraphModel dx="1833" dy="390" grid="1" gridSize="10" guides="1" tooltips="1" connect="1" arrows="1" fold="1" page="1" pageScale="1" pageWidth="1100" pageHeight="1700" math="0" shadow="0">
      <root>
        <mxCell id="0" />
        <mxCell id="1" parent="0" />
        <mxCell id="X4vXFXuKC3ZYve2AUPkK-1" value="The raw material is received at PSA.&amp;nbsp;&lt;div&gt;PSA operators record the material information in Excel.&lt;br&gt;&lt;/div&gt;" style="text;html=1;align=center;verticalAlign=middle;resizable=0;points=[];autosize=1;strokeColor=#d6b656;fillColor=#fff2cc;" vertex="1" parent="1">
          <mxGeometry x="-1070" y="30" width="320" height="40" as="geometry" />
        </mxCell>
        <mxCell id="X4vXFXuKC3ZYve2AUPkK-4" value="" style="shape=image;verticalLabelPosition=bottom;labelBackgroundColor=default;verticalAlign=top;aspect=fixed;imageAspect=0;image=data:image/png,iVBORw0KGgoAAAANSUhEUgAABT4AAADICAYAAADBXf4CAAAAAXNSR0IArs4c6QAAAARnQU1BAACxjwv8YQUAAAAJcEhZcwAADsMAAA7DAcdvqGQAAIbZSURBVHhe7b0PkB1Xfef7G1eZ4m8h/hgwCo79MqNnCy0V4oqXmsE8qCIBjQOlbOSph6mKUomYKeL3mEnWYuNdbSyys3HWcpIZtgylEUkh9mGnBieoIJ5JIleRstEU65QCj8iyVzN5lkSEAfNHBAz+kzDvfLv7d+/pM6f7dt/bt2933+9n6je3+5zTp8//Pv3r82fk0qVLm0IIIYQQQgghhBBCCCEN4rLolxBCCCGEEEIIIYQQQhpD4YrPzc36DyBtQhyGiWHPL9a58hl0eNlG+RnGdKlznFmOQ6qcDsyjOKxv5TDs5a4p8a9zPD7zmc9ER81m2OtaJ4YlfRjPZsF4+ilc8fmTn/wkOqovTYjDMDHs+cU6Vz6DDi/bKD/DmC51jjPLcUiV04F5FIf1rRyGvdw1Jf5sP6oP8yidYUkfxrNZMJ5+qPj0MCyFpSkMe36xzpXPoMPLNsrPMKZLnePMchxS5XRgHsVhfSuHYS93TYk/24/qwzxKZ1jSh/FsFoynH0519zAsw4ObwrDnF+tc+Qw6vGyj/AxjutQ5zizHIVVOB+ZRHNa3chj2cteU+LP9qD7Mo3SGJX0Yz2bBePrpWfH53HPPRUchTdAwD4uWvCkMe36xzpXPoMPLNsrPMKZLnePMchxS5XRgHsVhfSuHYS93TYk/24/qwzxKZ1jSh/FsFoynn54Un1B6Pv3009FZSP8T+hH56N69svejj0TnxdOswnJRPnubSS+kWSS3ffZiZNcMBplfj3zUStvbPmtSu3z6E/+t5aZedS5qJ/oU/u7DW0x9rEobdfGzt/UclyIpN12Ql7dJLMoXPyu37f2oKX3l0c84I3/7maeVKMcDyDOXYtIhbFvazRzaQKd8dsHg8wjxGGz+2BSbHvo88OWTPsOKi3txYY/CFuvzFJtPgyp37jOtWf06UEwfJCv9ikes7w3pY/+0/7h50nu7nYdB1TUfdr5W5V21tPQJ+iJ2OVAppzyUVw48z4oS+2HlxNPtj0U88tHSnin9jmfwrIxFMOwXxOstzPpbfvPGs2vFp0/pCfo9tPbiZ5flwtveJlc/9KW+VZDmDQ++Wt6/eL/cf7+RxfeLfPrPS2lcymJQ+YUH9F3y4TBdIVNfkz8ewIO6f/G3ys39i/L+C3f1rcHuTxzs8Bv50A2Ree/0Ft54uO7+5e2ReXaq0Eah/M+enJBFTV9TRiZODrZtqUK6lE2d4zyM+eWj+HRAp/sukQ/fLV00LzGYR3GKT4+rxXRp5eQjzpP1kS/JQ1dfbWyLo9iwI2yflj/vU4M/iHK39Zl2v3z4qk/L7ACUn/2O/9s+rHH8sFz16dmtL+gF0Y94BH3vC++P9T2C/mmtlZ9Wv/DDV8mnZ8v72DOIuublkY/G8nXqa9V4Vy0tfbb/stwdxX3x/aZ9ff9iVL57f45noTLloM+UE8/tcsPE1fLQl+Il+JEvPSRXT9xgbPtPv+O5/YYJufrCxfaz8eJFuWB+zn3NeloG/ZgJuaGPEc4bz64Un0lKT9BfDfNFeeSkyMSv/IpMXP2QOOWpMMr76jEALn5Nzl39hlIqXVkMJL8uflaWH3qbfNhWpt3woa6UWL1STvy3yy/f/WF527n+vOjUrc4NOrwDTy8t/3f/stWWoIx8SIpTL+enbuWoCOoc52HMLx9Fp8MjH52VkxOLUsS3HuZRnH6kxxveMuF8kL4on12+IO+fMuYFUnTYJybeJg/d1R8FTenlzvtMQ7cO/Z6T4uql+0158b9B3vI2kQvmpbUfFB6PpL7Hb72/rwNiSuWGt4jJktIova5l5IYPDbY/qVQ1fYqG8SyWQDEYa5MekS89dLVM9FMLaNH3eG7fLldZz8aLUNC9//3yNivOFy9e6LuiN288cys+05SeoK8JffEROSnQHJuH3JTpcPVJ89m8yn9OPj0bDZm/q7yvDWUxkPyqkAK5vPj3r4PcnzhY5b7gofa9hdcOl2cqRAYG3UbhAXfubW+pRKfUpvx0iefl3tlPG5NyGXRZ6IU6h71IikyHh+4KZyIU9RGOeRSnL+mx/Yb4x/xWXzc6L4jCw37Dh+TDb3tIlvsw06X0cpfYp9sub7j6nNiDWMqgtPgHisT+vYwXHo+kfMJLuFzAoKP6E4ySKu/9ovS6lgTaE4ywNn2pqkxzB5VJnz7DeBaM+1wvYfSjTf/jCZ3AudZsFdM0m+fIDeZ5qXGOBiv2OcJ545lL8dlJ6Qn6mdCBNlmVdvgi9tByX9YNaF7lt6fW9ndayyBoXn7lo+z4X2U6mEXTnzjY5b7YqSK9hTc+1b2bUVnVKvPRem+BlDc9y0f56RLPSywlUuTU1CxUqyzko85hL5Ii0+Ft7y925BPzKE5/0iP+Mf+RP/+0XDUVH3lYBP0I+w2/0p/lk4a93PU7/vhAoh/rripgSYwk2H5kxfqIuvwGWXRGHveTKuXRDR9CXwrLJs2atCh3rdMkhqUMM55F4zzXS5zmDsqI5w1veVs0tR2jWa+S7dvDKf7BACl8wD0Hs9Btv8gbz8yKzyxKT9C/NQUekT//9Dk592k0hng43CUPmQfFlnWRCqDZ61z0d1rLIBhIfm1/g1x97mulr/vko7z4h8P039CHRqxudW7Q4R30/bdvv8q8Oaly5Qb5UKD4+3Cp07N81K0cFUGd4zyM+eWj0HTY/svyW++/IHcVtC4h8yhO39Kj9TEfz9m3yVv6MJy+L2E35W2qD6M+Sy93iX26i/K1c/3p96TR7/i31/js7uNrVgqPR1I+mXeaC9L/l+z+oR9RF+X98ulS9wsova51BMsm3S8ftkaTDZLqpU9/KDeegxudXWo8g+c63pXC5/pUicvhlRJPjR9Gs0azADHF31Rck79fK2VmYN54ZlJ8ZlV6gr5pmIMhwvZi1kY+/DY5h8SNnBRFs796oPL1Z9TeoBhIfkVD2O+yh85e/KzcNoChtGXF/5GP3tW3Yfp1q3ODDu/A0+uGX5H3o/wPaMfbJOpWjoqgznEexvzyUXQ6bP/lu8MpgwU8j5hHcfqXHuG0sU/P3iUX3v8rfXlZ6FfYw1GfnxbTtSyM0sudr09nnm7YJOyht02VsrmITVPqXeHxSMqnP/60SJ/qTbmE65WWuQltVcoadoluZ+tFuXihGu+qTamLnSgvntGzztowArMcylo+q9z8RFwfkuXblluKwbIoJ55YCsbEb/mCXK1fB02dxdqff7z8kLytH19wHfLGs6PiM4/SE/Qrob1DhKFp7sOi4+VWijKw16FDp7qYTQ+qwmDyC18ko50kg3Q1Mvs1mRpAwvYv/vH1C4Md7Ps0/aY/cYiHv8gdPwfdRgy+jYq+yEfrMYVpDMX4YNe9HXy6lE+d4zzYsEdLNMwO/oW5H+kQbMry0F09L2tTjfL1kNzVamcGO/2xn+kBBSL2Sq/NeotKMOozOi6I8sudp0+3N9wk7P5G9evKpfh4+PPp0+dMj68PA2EGQp9GUSdRlbK2/ZenxDT07Ty96sOVeFdtSl3sRJnxvOFD8Toc7OZfUmaXnZ/BdPBz50pRAtqUE89waruJntVvCRXb5871Z+aKS954jly6dKnQsbDf/OY35bWvfW10Vk+aEIdhYtjzi3WufAYdXrZRfoYxXeocZ5bjkCqnA/MoDutbOQx7uWtK/EuNxyMflb13XZD3LxazZulnPvMZufnmm6Oz5jLsda0Tw5I+jGezYDz95N7VvRNN+DLShDgME8OeX6xz5TPo8LKN8jOM6VLnOLMch1Q5HZhHcVjfymHYy11T4l9qPG74kBS9keUwMOx1rRPDkj6MZ7NgPP1Q8elhWApLUxj2/GKdK59Bh5dtlJ9hTJc6x5nlOKTK6cA8isP6Vg7DXu6aEn+2H9WHeZTOsKQP49ksGE8/I0899dQmdkTChfh1Ja/5mTNnIq8JIYQQQgghhJD6cOnSJdm2bVt0RgghpI78/M//fKstL3yNzxMnTsjNe2u+JspI/u3xyeAYGUGGRSfDSAPKK/IwKQ4bixMyNrdLVjaPyO7QRBYnxmRu14psHglNOrMqMyPzsnP9pMyORkY9kBbeMhj0/avKMKYL4nzP5x+LzurFre+5juXYkJSHj95znay+4a/ltvde1Tr/mCzJPbfeGJyXAfMoTp3bGIS9Nn2lIe+H1yqv0jDR2BKPRSNzRmzzCSO7jBwJzrIBv9eNdNOnw7UrRtCFXDUyacTx6+gnjsr+/fujs+ZS5zatDIYlfRjPZsF4tjl//nxL8Vn4VHdCCCmOVTlsOsgL66r0BKMye2xBxpfmZXED51CETsji4kzQAI7MoBdrWI3OjUwsng3NlI1FmYjsIHpJol+EEDJg3viWKZFzT8hT0bk8+Sm5+z3XBcpJyH2nInMQs7tDHo2Mk695WO57zy3yhSejU0II6QdQekLJaHPMyJKRoE9ngCIUClIoKGdgYEB3DOcQ2NngOrWD2F031y/YjRvRTiV+ce6GiRBCSKOg4pMQUl1Wj5u+8C7Z4X7RH71JpsbX5Eyro7omc8s7ZX1zMxoFuiozk0syvRIuwXHwzFzQpw4xdmNzsiuy21xfkNOTM1Y/2fWLEEIGz6NfWha5+hq5Ijh7WO6bvlO2H3osGC16z9LtcvGQKjgdu0Om1fvchQ7XEEJIn9GO1pY+nRFX+Wiau2BUqI4CxahMjNKEmbuq2pgRtYMfcGtj+4Xv4BhdaoNz5/s4IYSQZkHFJyGk2ozvDPq0nZg+ONvuS0NhOr4gByK95e4jKzIdHm6xC5WoS3LcGiEQ84sQQgbEE0ff1RqdiWnvrWnupx6UL157u7zz+vBUrny7XH/tsnwVIzhdu+s/Ek6XT7uGEELKAArOLByMfoE7StOeEu/aqRLV6tPF/CKEEDKUUPFJCKk2a2eKn4G0NidjranuYzK3FpkTQkiFuOYDfx2Mzjz0gTfLE0f/JD468/E75VBr2vq75P7HI/M0urmGEEKKoh/9LfhpT3Vnn44QQogDFZ+EkOoytlPG5bSc1XWflI0HZHltWvZ0OxN9fCGcym4JZ7UTQqrKFe/9A9l77XI0ZT3i2tvlEKasW/I+Hc2ZRDfXEEJIEej0nS19OiNQVnbdpzOCqey2JPm1w8jp8LAFzmFOCCGksVDxSQipLqOzcnB6Teb2LVr95A1Z3Dcna9N7kvvIu/fI9NqcHI6mOq3OTLbX+HTsCCGk+lwlu258szzx8N+Gmxtd/0556+N3yoO+aequ3ak75G4oTNOuIYSQfoNp6Fh3aF9w1gbnrfWIPKCzB8Wo9tt0wyPg2nXCdY/fXpSuhBBCagEVn4SQSrP7yKas7IpPTV+eWu+w8dBuObIyLUuT4TXH91hrfMIu2NBI/YPYmxsRQkj1uOK9H5S3Pv5XcjrYef1GeV+wOZFOW4foRkWO3SHT6mGNz9RrSOlsLMpE9AyaqdsDyN5Fmw9Pkgesz4nNhOyp6VNG7HU7fWDzImxaBPd7YGChGxrZfqZh+4XfwtdTIoQQUjVGLl26hAkBhXHixAm5ee/N0VlNMQ9CTH0l9QAvDcG0lmGlAeUVeVinOAw6vHVLr7IYxnRBnDFd2cej91wnH/ur6CRgSn7z8x+RN0ZnhfLkp+Tu6b+S65fulXdcGZl1AIo3luP0PBw0zKM4bhuzOjMik63pBGBaVjaPZBo8hmvnd67LydlyttJD2GN9JYyai4XdkDWrce1OI7PBWX6gOLV3LYQiyk60Ie+Hb8krmwkjGKHophnQdMXU75Mw6MBi9NtrPkJx6CvGJhp17Z8f/cRR2b9/f3TWXNw2jcQZlvRhPJsF49nm/Pnzsm3btuCYIz4JIYSQhqKb40B+893L8rF7Ho5sCubKX5XbPp9d6UlIUxhfWA863pCV6SWZzDR8c0POnhbZtaMcpWciC0bwzgDBtAh7CnEava6JCGUZFHe4r46+a69nQzoBxebx8DDGYSOwKwsUX+ThgIsxIYQQ0gkqPgkhhJAh4I1vmRI590S4RiTAKM3WlOfr5D577ceYnTUdOvGah+W+99wiX3gyHGkarCmpBNdwSjVpPrv3TIucPtvW4VnT2SGhTnRDFifGZG5NouVYoqVWvG4B3E/I4uJMaOdVrK7KDPxZjdwYmVjMqUnE9GF70xdcjhF7KnpbHXGoU4VBklsA9xhZCHMoVmEH5ZyOVsQvzjndODsHjWC0rpvFMIOdjZs3eg3yYi4SO8/y5CXAsRsOQgghpGJQ8UkIIYQMAY9+aVnk6mvkiuDsYblv+k7Zfija3TtY+1GVk47dIfPuGygy065pAwVraxMew1N/91fyxLvf2Z8p9oRUiNXjSxjGGQ2AW5WZsTnZtRKOBt0M1paGknNUZk+uy8K4yHRgh6nxSW6VNZlb3inrsEtc33pJJucjN+Z6mdsnuXSfGEGItRcVe1SmrqEIMIUaikq1A0luFdP0BHZYx/GsEfs+AOcwJ9nBCN0HwsMAKCR9GwRh4yCkPQQjfHVjIeQFznXUrxarPHlJCCGE1AQqPgkhhJCG8sTRd7VGZ66+4a/lnltvDC1OPShfvPZ2eef14alc+Xa5/tpl+SpGcLp2139EbsPmOGnX2AS7h+smPBfk9MNflre+JbovIQ1jbW6sNcoSa3a2FJOrx2VpfEEOqEJp9CaZGl+S4/YIOiWD2+mDsx1mFI/LwrHITXD9mpzpNIpSR/tBsGanKrNwX3tUJjzFuTfsRjq5dUchkt7BCF0oIRUcHwgPY9hrfd5kBKN1k2BeEkIIaShUfBJCCCENRdf4PPSBN8sTR/8kPjrz8TvlUGva+rvk/scj8zQyXXOjvOndX5ZTf3dB5Mm/lVOPT8mbVFlKSMPQNT7XF8Zlbe5wXDe4NidjkVJ0ZCSc3p5IHrcdGZUduzDrvsOQTx3th18oQW1wf1WKQlLDbiSrW1IMqpxEgdNC59OM69R0CEZzdoJ5SQghpIFQ8UkIIYQ0nCve+wey99rlaMp6xLW3yyFMWbfkfZ0UlBmv0enuj3KaOxkSRmePycL4kszb88vHF8Kp55YkzlTP47YjOTdPwq7eGNmnu3wDnEMpakti2I1kdYtNkey1REGvmyUNK1NGsEQBBMcuKIpQaGueZFlHNU9eEkIIITWBik9CCCGk8Vwlu258c3vtzWA6+p3yoDtNHbh2p+4INytKu8Ylmu6+ymnuZGgYlZumxmVt+YFwr5fde2R6bU4Ox4aAJpDHbQA2PHI3MFqTOfVg4wFZXhuXnVlG+ClQnOnUaSi6MNIvU9iNZHULXPf4xTmVa/nB1HVsaASB8trFVXRi13eXM9EvyJuXhBBCSE2g4pMQQggZAq547wettTdvlPcFmxPptHWIblTk2B0y78NY4zP1GpdwuvsTnOZOhojR2YMyvbYsD4SaTzkSbFKk09ch9oZFNnncJjEuCzuPh9cGGyWdlNmMAz4DoDiD0kt1qbqxjT3tOYk8bgE2z1H3+M0yEpFsRdfg9G1qBKDIhJ3mCdZxtVHFKey0sOXNS0IIIaQGjFy6dAmTGArjxIkTcvPem6OzmmIe8phiROoBOvnBVJwiQIdfR0igY16HEQgNKK/IwzrFYdDhrVt6lcUwpgvijOnmdQSK02bl16rMjMzLzvV8Cqfi8/Bhue89H5fXLd0r77gyMuqS5uVRb1S3jelc9hD2wvpK/WbI++G1yqs0TDQS4wE7KFnzKOdBt9fl5Ognjsr+/fujs+ZSbJvW3TOwXPKFsbptfrEMSzlgfnZDvfPz/Pnzsm3btuC43BGfE0bwwFKxP2Xbi2/PwMBBr3WBokqvg3T6PI772GsYkeaB8mOXCUhWMA1IF/uv7bSrcAocGoMtMrHYGsyxsTgRt5txKs/GokxY9q51EvA3Pv2uYCoZrjDNt4RldSaW5okEcZoQDV7f05CQirI6067boeQd9ZYDp94VTpdtVeE8+Sm5uzVC9zq5L1iq4IJ84YA9cteSA58Kl0MghBAyVGx9Bnf57Or389WlKs/bhsBy0CyYnyHlT3XHKDoolXQqBRIOgsW3YaZKWztB9RjTOdwIY3Se+qlTZ8rKDFJdVHkJwTQfnzLdRyMW2B+V2ZPR5gjrC6baTMsKjiEnZ4OP5FCsjc3taptvrsvC6UlL+bkqM8FUuch+ZVqWJkts6BKparh6ZHRWTm5W+Qs5IeWhu2RDVqaXZLJfPde+1ruqtFUPy33Td8r2Q9FmVIem5IuHbpEvPHmVvONwZLZ0u1wjU/KbOIYc/lW5IrqaEELIcGE/g/EegSU4cn+ML7Vf29B3gwHDctAsmJ+DXOMTCQZF5gPBWYgm4hEjdoLCDRZd190LFbwLwQ8dmYdfnEOBCuyRf3CLcyhYIWpGms8eI/YOoqgwWi7scoBRxVjfStc2AkluAdzrSGVVrKa513OfnXudkuZf16zKYVMHFtaPWINaR2X22IKML82HDcrqcVkaX5ADrbp1QBbG1+SM1i2MZIy+vkwsLspM9PUHX5TG5tZkbW6s9WUGZrGGNfh60+UorqqGKxOmAYf/Vhjb+hzYJYeVkGFl955p036fDZrCgLSvvzE7qy4nXhOvd4ntQdo9Y23O2cjQ0KmtSuDRe64LN5JSgtGa0Tqq3pGbEafuaJnf/bknIkPDqQfli9feLu/UdVav/w3Ze+2X5Rtfj85JQ9gtR/jxjNQNvN9p/9aejYem2O77Wk1zjDR3OEdbrXZ2u+1eR5KBomNl2vRJD2d4ptr0+nzFTCpz/WL0jDUWif7kejewntMgdv8wvMRDE8oBaTOk+Tn4zY0wuk47alAk+cAuk1iAWxfhVtB27QoPW+Ac5kg/KLt01B8SDQpVjASs/VRmkgsoy+1yYo8SRuWBohOcNALFudqBJLcKyibsULZAJ/cIC+x0dLLijlzWDmAn/7oBDYlJkB3uC9LoTTIVNSgbZ03l2bXD+v4wKjtMGp4+i4plGr3JJZmOvsAcPDPXqpa7j2zK+sJ466vSEVPHoLho7XJr2HhgWdam93RV/aoaruwsyeTxPdaXq+gBYeELKyHDyupxU4tbdd7Ucfvrb/DFWuuQY2fazfmgI5V2TZvk9qDDPRPanPS2Kpk3vmWqvfO+4am/+yt54t3vlDe6IzeDTaZ0Yyljd2hZ3hrZ7f7anfLFwNxcf9E06FdfY43gvEpec7XIxYuWcpUQQgaB9qHRv8WgFG0e9xmBOQTvbDj30cld3j438bN7j5geqxwPHnzZnqk23T1fwZrMLe+UddiZznCSP2NdvhsEdqbMHIP/RsztZW5fhuWphpValwOyhSHMz8EpPhF7jK7Tl3o8fAC+vNnTktUdYq0xT8sFG3t3SjJc6KheCHaxVMUkyo49ShhlCue+MpXF7cHoF2RxfyD6VTcon+51+MXuqln865bxnUG/ryucLzC7j6wEqwkkgoa1tcvthjywvCbTezRSBVLVcMUYl4VWAPHAOS18HhMSR0c7Q+Z3rgcdowD362/wsSbqtG35MnxETmL4W9o1NkntQY57dmxzsnD9O62d9y/I6Ye/LG99y41bR25e+Xa5/tpl+SpGfTp2b7x1Sd4aHhJCSHU5Fv1q/xYKUICBCAoGveB9zkcnd3n63CSFMdmJNANZn6k23TxfI6YPhkt0BXTTb099Tu+WI9ESYGD0pikZXzvTKobEpcblgHgYvvwsX/GJL25QRuHXbVnwAIMZPsVo4uBrnf0mgWN7unsSSE18/YN2J2kkKWkuOqoXv1CC2qBjpEpRSFKHCuRxC/K670TR/imlPth3y57pNVlGi7bxgCyvTUs1nk9VDRchw42OdsbI59g0HLA2J2ORUnRkZEzmsrSJma5JaQ+6uWfX3ChveveX5dTfXRB58m/l1ONT8iZVdj5+pxxqTXV/l9z/eGROCCF1Z5cRnYWsy0hB0r7SZ3VHemRdzqyNy05N49zPxKKer8X322MbvY7NFfaa1UyaWw6Gk+HLz8FtbgRpqXotYAblpj78oASF6INNzwGmyZ8OD1vgXDenwRc8HUnKaQzDCcoAvmbY+Y9zLYMqSRUsj1uQ130nivYPjO003npGGlqNzWg4llzaTjYkHHHuq7Sd0WHsq61h8N1R1XCh4eJ0CkKKZXT2mCyML0VT1iPGF8LpMZZ0XA4i4zWJ7UEX9+ylrdLp7o+2prlHXHu7HNINiCJ5nypFE7hiu+nRnnvC2qX9gnzrnMj27VdF54QQUgH0/Q2NJgYsaJ836St9VnekdzCCy14iq4tnYlHPV58/XT9vNxZln73R6zo2hCWJNLUcDCtDmJ+DX+MTQCllD+mAYhMPPzXTh5oKgB1SBRpkdYdfnLsJa9ItxpnolwwH2BQL6wgBt8ykkcctyOte8ZVj1Ilu/evE6KwcnF5z1rHZkMV9c+1GKxh2PieHW2E6LHP6BcaxW52ZbH2LUNbclYejYezzvQ5fr2q4DEGjHRudthqsKzQ+dZP3G08ntoSVkKFjVG6aGg86Q0Fb5dZ/my1tw0y4WHraNS6+9iDHPWNtzpbwWG1VJ6Lp7qs6zb1ldqc8aG9opDh2j94z3Vrjc8t1p/5E7rdHkRJCyKA4HP2igUd/FyOP3K6PunHJ6s4FbbCvz038YKMR9GUXDvjfD7KS9/maRBZ/sr4brJ8JioKyepgjPhOpezkgcYY0P6uh+MSovHkjOqoT05MRKUxpx7ELzOAe6ILVuM6ePo+HmD1KVNdv0Q2SYJ43c2vHamvnrcEzwLAg7/Ek03ujjGiZUUkij1uQ171iX4dfLa/d+tcBbKCzsis+DH15ylpLz1TAI8HmO5H95GlrF/i43fE98XXtgjVyliYDu/YubuEw9rWeH0BVDZdh9xFZXzgtkwhXIJNyemE9XGcwJ/6wVoEqtSmkGB6W+95zi3whWFOyeozOHgw6Q5gBE9TxYJF0rWMQXTDdsTPt5sGg7qVd4+JrDzrcM7HNidvF26pOhNPdn4gpKG+U9wUbGrV3db9Vd3uH3aEp+WJk99W32Gt8xu1uPbQue5c+0h5FSgYM21RSAOgb1rEM7TGCsEPhife5sMkOZ/5pnxfr9PvI6s5HUp+7b9SrntvrbI+MLcvU+qbVl83zTLXJ+3xNIsGfbt4NTL99ZXqp1W+f37kQe28oHpaDxPzreznoB8zPuuXnyKVLl3QMZSGcOHFCbt57c3RWU8yDEENy22Dr/XB9AuwKt2WoLrTmWBcEw3qtRZKTwHoi++RYVwqRgOB+KLAnJd0LVMh52anuNJyhpT8ufcMJS4GgMrRGAg8jW8pr2WTLW5T7sTMHLeVqG+Rh8XHoPVxJ9Ce82fHdf3VmRCbtIa4Z2yOQvU3qkKaJbYy2oePmoWVduzojI/M7Y+EM8sNeDGZ6JXPepOdLux3fgpVWHe8/4Di6IM6Y8tw9UHx+XF63dK+840pz+uSn5O7pO+WJ0DLYKbzTdGrw1OduMSXoD+S292afQg1F3GDbrmrQex72j67yyKkjpoLF6sSWtsq8aq5sWp3ZitUxm+Lb/t77Rlva7yD9tvYREXZvX0lHu2VV/uAlT9cEA1BYadJCkWSDeaO6AY17HYACyhfvzP2are2627etW5sOEvMqCaS7pmVa/uTN615BuIqsLiVy9BNHZf/+/dGZr93aWtaSseq5yYRs73DFoeUT62e7/bzi27T+E8QnZ7+9W9z0qW05QLvVCrjTphmGpRw0JT/jzxynD2VgfrY5d+6cbNu2LTiuxojPmjA+Pi5Lnu2tMDTeWEZnJTA6Kyc381YsUzlNx26XqcwoIJuBBp2jDEhZVHXXvWbtBqibwmxursuCzMlYqcNFs7QxazKXMvchfJBb6y0hHqcnZaSQeIzK7MnI33Ws44SOQnQeU3qm3b/qceyVh+W+6Ttl+6FoDclgpGB1R4OSCoKXK7uOBHJQzozFv/a326rNcMTN0NSxEuiqj5gDHZ2Hdw2ddWXnDxRwsIOo0hNJb1+n4ipCuwQvqkFeB6NM2uVlKNv0TvlDusZut8KyNhIuqZKHftfPGFDejwQfRkzRbgiD77fXrxyYdg4fa6IwmyA7y53VkeLKQR3z8/DyVCs/432outK//LSh4jMHuw4elOmleadDtCrHl6bl4EFnIVF8QR7R4b3tThQ00dDQ63DjVjmNubent+KhZa5fNC8TsAssTANmD61OuFcMLGA7viAHtDztPiAL42sSLiMI/8xLCV5Yttw/sovOwnvp+dbrgobC60/EA45bJVf8Se0INk6ydo6rClUNV8+EayPG6KlNiist7Hrccp/axoRMLyzI+JY2VDEP8jmR+DSGUZk9lnZNkWS4f53iiJGbwXToUO6z14Y8dUfL/O7P6dhOw6kH5YvX3i7v1BGe1/+G7L32y/KNr0fnses+1Zoi/+g918mho1+WJ46+q3UvmN39uQvRhYYgPDo1mzQT0yeYXPKMltgtRzbtMh8H6yO3FrCvXTuS0EdJ7NMYYn0m3ckTpPW3DJ422d9+w5+EvqDLjBGTXoFgdJ7eDNfiXEXN8YtHSyt/jODcyh8vUL5BCecWAijnimT0Jpky5SXYHdYEtlFtupsnPr/T8seX1zCz17fUewB1o/fzuVPR8jFMQNGx4qztnlbvW7TrJ+rv1nehqM4n+rW1zUn2x5TFk/Z01gZQtX57LcqBeQZbI9SD5bTWznRstitNv8pBDfMz1oeqK33MTxsqPnMRrj8QdqhCNhbnZcnexSrAFP59IscibbP9ZQVrK64vjLe00eHLgXFvf3EOvjZEFSRgTeaWoy81W4b/Jt/LZiPcBqtVSUxJcHahXpLJ43vC+wdfvO37p2Gu069IQUNhOt+2P/N2WKx4hAGNOoW9xJ8MHrzUdvjKVeqXMKWq4SqD8MvZeOsJ0mObZF5Y2ztrm/p4Zmtb0bmNMeyINtbyjZ7BC6i9u6ASvcjaL6J9IcP96xNHZ+RmsDakKh2N3aHlYAo77HZ/7c7WRjhPXTQBuPoauSI6F7lKXnO1yMWLUGAmX/fGWx+TQx94s1zzgb8O7DA1Xncm193En3J3KCfNY+OsnBZ7faZsrB5fatWrerYjbh/FbT/tPpWxi5TDsDt4Zs6ENwv+NtnffufgiBEMiIBACanX49HhjhoE0NM63/mDc1t/66JZlzdsPRDs+tqoNt1gnuFBfkCQXzh3ScsfX15jjU3d/BM8YMQeGYj9FOAW8YDCVJPFLh+w0/IxbGDzDVMCwsmATh3d8i6zFd3JWJN1o7WjcSe/4m1Osj8NpIr99rqVA2zqNL6zqAH3g6Gf5aBW+bkhi/Pdb6RbGUqq11R85iReCKFcMH2I1qdiJeeXFXSc7C/OQYdJK1zI9MG2f3GK+ooz3o5HUOFPi93vS8Zcdyy6f3Cd5c/YTicsllu7U9hT/AkhSnvh6nBdsqmbtNb02CbtPmKNGOi2rQjZfWTFM3I+YtAdsYLuP/A4uiM3r3y7XH/tsnwVoz4duzfeam+Ek0Le66KdyU8H0+QvyGl7h3LSTJyXKYxW0FEN7qjxdluFDSXWc3/UrFo7EuujbGk/MYow6tM4dkE8wsN0UtvkgkE4faMG7QxMA4mvIwExohAPGlyvwMweLVgk7q6vTWnTgS4bALBRq7WkaNcgneCPxgtKUChDlWPRL4qajhx1y4faZS0fjWJMdmrZzvAuswX0oVqb91lTPTP4FWtzkvwhJVGnchAqyvhenUYN8rM1c8S87+1aadao7j5CxWde0IGVaGt9dLBkSlq6BQus+dPq8I/Zi/wnsBbfYbu1Xm0Gct+rEjhf1XuIPyEkJLauycoumRsLp12A6rQTu+XAQnvEaYxBT70p7P4ViOPjd8qhaFr6re95l9z/eGReGuHO5Kf+7oLIk38rp2I7lJPGYpVvjEbUUQ36DqFoW4XRirEpZZmpbjuSaRRhlelmVKcNEl9HJmKUIbAfODDTkYIFkbjra5PadEw1V2VxkZpWaN4x0hMRQz61Es/BLgNwZyuvh7bPvi5n7OmZud9lrJmEwVRPS2mfy68Uf0gJ1KccrM4YP3at5J8dMFTUID93H2m9763vnDd+pY9CJSFUfOYmXDsPmxxhepZ3aPHGouyzFzr3dPq3ML4QDm22JFOjlPFeo2Gv2+qwbUjYNx/UFwLn/t3GnxDix16rrJs2KSd52pjR2YMybR7+h49HBgAjxH2jR8vqxGe4f63ieO3tcgjT3C3ptDv7FdtNL+/cE63p6Rip+a1zItu3Z9+p3Uanuz/Kae7DAUYntKaHZWN09lgwGlKX0qh9O2KoXn8rJzuMmPDGwDnM0+yS0DTv41tZa3Mje6pck9p0+I+p5qpQTtK0dpM/Ot3dnebuYvuDDoSGRaWEulU5MIJLrKUOuniX0ZmEq+401px+JfpD+k9NygFmYUzKSu4ZFkNHzep18GzyPYfIFqj47IJgmujSpExiUyPf0GJM94oOAXZ9dxX6a/bCP8FQ5mgUaV4y3CvAvYc7HSiV9otMov+ZsNZICjqF0deUXuJPKgW+YKXRyT4L6kev9yoiLFnBaMvExbD9Fr1j17Fe26TVmfgC2z5ytTEYPTMuS0vW6naj0TpqsRE1G7K4z4S19bDH4t/OYt9FkeX+dYljMM38TnnQ3tBIcewevWe6tVbnlutO/YncryM1066LeOJr56OjiGi6+yqnuQ8JUZmfTFr830f4MRkd+6DE170dAWlxcOxWZyZND8smob+1xc94mxxrv7vhTPQLEE7cuHUvIzgPwh8d++zSwLqSWAdSryuDJrXpbvYejn5dsuSPnddAr3GnuQO9D4ION0GfPTouMy+rCDYamVyS8YUDYfK6ZSkrwXXLMm9PY+3GL58/pP/UpBwESs/TC7JOpWc6dchPTHO3O1muopa0MflpQ8VnNwRrMpjfVqfGYfcRWZleksmRcCjz/M6F2EdUVZzCLiy3u+VIsMCtDn2GZByy3OFebcw9ggX2I//d6UCJxK87vifjelRepmVlz/Hw/sHivvplvof4k0qAPLOxz127fpL1XnCHr2xlhW109qTsOe4qA/AydFz2FNgJsdfNGxlblqn1qI712iaZF1bvR54Y+dqYcKRXdBKBqbEru+LTQJan8q//1y2d71+XON4o7ws2NNKp7hDd3MjYHZqSL0Z2X32LvVZn3O7WQ+uyd+kj0UjNtOtErvj5d8s1fzUd2LV3kA+nuz/Bae5DA9q6cMF+Ld9GzPNe9CXCQziSTtexqn87kh6HuF28T9XBLqFN3tp+5wTrRUKXh8ehXq8bGsEMv7biLc0uCWysCnd6HQRKNChE+0hj2nR4hcKgabfTSBJp+ePLawC/XQUpwH00r+CvdgPcvIQMAVv7WPaO6U4dDSTLu0w4nXUtpnDvxi+fP6HSHddPmnzX8HfVTpAWtSsHG4syj3q/ZrdTLAdK7fITM/pOh8/8QDo8t4YNNz9tRi5duoQJCoVx4sQJuXnvzdFZieChiwexltNeMH5BKULqAQp2MM1mWOlDeQ3SNAN6X7hXRaL9qySZK0nmLnCXhOt/1ntlvbdNN9eA1ZkZkSN4OKEzim3Wu9vBrtv7N51hTBfEGdPYy+dhue89H5fXLd0r77gyMvLw1OdukUNf+6Dcc+vWEZ9QkvY3v1ZlZmReduoHgIoyuDzsTP/zqF7UuY1B2GvTV+pDv6ZOlJ5XGBSDkaC6JitAd6vX9yr4UdNsPPqJo7J///7orB5gdtHYmYO5lO51btPKoI7pU51yUL0+GPOzF+qZn+fPn5dt27YFxxzxSYgNRpygo6Zif4aZMAIze7YS7GFuYy9AD8EOpqXQ/rK7RSba07Bim9xAPJ/80IiopJ0r9jHodN4NCKveV/1zz9PQ+Lpuca52/cDe2XhySUddYkHrNZkbi+z42ZU0kvrs5o52sW9Tn4viyU/J3e+5Rb4Q7JRPCCEF4ZvmTmpGPXdzr8Wzt1awHDQL5meRUPFJiI1O54FuTKcLufU2aW0lAKWnvQA9BAvCl6L8HJXZk5EicB2b10y3N7M5ORt8tEdDNGZvcrO5Hg6X71HxZisO3eOicBWWWdHwhPFtKzltce2KZVwW1jW9jaxMS2z39c1elo8gpMIEu7m/WV73+uic9MaVvyq3fT59hC0hhOQCfVxdv5PUF3tddzK8sBw0C+ZnoVRT8YmHMHQPKrZOxrXzgRF4pY2yI40B5QxrN+lHFfzi3F4fCetRYZ2UpI8YUHra7sExI2nXlMaqHMZSa7F1QEZl9tiCjC/NSy8fZlSJ5zsuSpGoSklbOeme+7DDA/TcFsU9LwZrZCdkcim+/siIu7kFIXXgRnlfJyXcIBR1WPQ9qlsTi2cjwwgsWt+qdxOtNg+jssfm1lr1svUdKOa+CuthYXkBHfGJ4zvk0VN3hOuxGrn7cxdErPP2WquGYLRotHara0cIGV7wVRzdHnfqos+sKrjvggNvmyvA6Kyc3Kz2si4u9Xn21ohBl4NG98EGAPOzUKqp+PSNulNcu/hmTaHCc5cRe50aQrKA+oyyY4Nzu57vMILheb5Rn1qB3cYJ564CdRAk7foWbNa1JroprDZIKq6Z7xzYdjauItG9LiuqlLSVk+55NeGIT0LKYVVmJpdkeiWsWwfPzFkfFYwdltWN6t36grR2YsbmJOsL4616GS6jZNwHm/BF9TRYkD7LgvZlsiwf+7OfkUOff0zuOTQlTxx9l9z6pXcG64Xi/It/9il5KnD3sNw3fadsP2TMYRdsfKWbXRFCSM2w3wXRd7XfE0ltqO+zl/gZtj5Y02leflZP8YkU8I26g7nPDjtFKlBGYVoxlZ6kn6B8JY3gRPmsMuM7O85mChokS1wz37kNzFzFpq3sTLouC+qP+uWep2G7TRJCSI3Bx53xBTkQ9RF2H3F2xY6W/ADBTthrZ5K/Rzl+hR+IluR4pXrdb5a9v/2rcgUOr3+nvBXn/y5aT/X1PyPXPP6P8i0cn3pQvnjt7fJO3Vn/yrfL9dcuy1c56pMQUjfcd0EdXFCptpl0TS2evcTL0PXBGk4D87N6is8so+6SgDLKvZaQfoAp7/vCwxhYJ6nKpDVKPQCloa3M1GNVKPai7HSx/crjr7p1r7XN+gOnuhNSBbDGcavejc11bq7X5mSsVU+xIVlkXkcev1MOtaa6v0vufzwyJ4SQuoG2GN+qVercNpOtNOnZS1oMdR+sgdQxP6un+MRUYozatME5zDsBjQ40CO7094qDAuDiM3Pp5CbNfnWmvRZDCHYEd82GjDxlDyONUWGPB2chOpTSTUOcw61+5RgUYztl3ETo7JbwYeHkaenHhnH9VyrGKfNeWcGQf02HQLZMdTcSzgMoDbttcNuJLG2PktUt3KVJ0/DF0ZaygJLLxj136cXeZ9fJv1LZWJR99sZu69gArgPjC7Ju11MjJVfV4rj29nBKvCXv0xGgNcRXr2whBYI+dUX61Zq3nfK4V3sbvNz51yJblZmyFynzBTtLVDq5yZ4c1QCNN7p7tgy4bUaZ8onSyc7FNfO5aSw1fvZq3rqidLJzcc18bmpBTftgmkeuKJ3sXFwzn5taUNP8rJ7iEwkAJZH2JfCrSiOfndsZg/ITG8zUQIHXbWFPqzSZ/DSFdV4OOgvlYpObKVk+nNaJg3J0awVvyUS4tkNtSSt7PnSjIwXpiTHg7khQnNuLOGLzrUG8RIzOysHptdYaHCEmT/fNydr0Hm80ka9omDqRxc3wYV6K3DoC2TLiU6XaHx4Qxl6wH3S2NBVfXCH9phtlo3uNfd7Jv7RrS2f3HplemxN9jK3OWKOp188Ezbmyenjr1+k1XegYOH7VGkyDf/xOebBhU9t99QtCCgYfepfDw46gf4NHRZL0sT5lfUbBHcpJVvejsydlz3F3Iwb0h4/LnsS3toL7y9mCuhX3Ovu8k5+wd8XGPS8Lt69eEez2R4/1HNhmtjnAOcqFjc+sqTTp2Wvnrx7rObDNbHOA81qXgwb2wex80mM9B7aZbQ5wzvyMqEh+VnNzI93QCOUCv1a6Bce2nb3GJ4DyKWka8hDQuUJB0XVGDrY6a5ZyBsOUlybDYyMTXi3MdFu7H5OGbNCSVvZcUPbczxtY/xPLLeB6lSkjFVl3FqMPV3bFh5ovT617Rxyml6PqUEQ4+xPX3XLEV1d8Iz4DqfZunAijL53CcrRVSLWAQhKj/PKCa9KUma6f3dyjOEydM/VraTIsg8f3WM+l3UdkZXpJJqPyOb9zIfbMCtYnip5/oYLD+BUsvm6X67ourH+jvC/Y0Ki9q/ut2BE+siWkRZLiEm80PnNfNxHvfj5B/6oHUAfdX5WswC2eZSDpmeYDfac9x7X+Q6mJXR2OeD8Yt6l4fxnJkBZ9zTdgH1cB+11QpeagbLiomV1um0azn735qXc5YB/MhflZrfwcuXTpUqEpfuLECbl5783RWU0xD9AyCiIy3QX39ZkrdrjgLi2cPntM2Tm842QwtHh1Jiyou87skCOu4mtjUWYeuEmOxDQx6Owdlh0nfZ29VZmZOCsHrIVuyyJIr/5nV3UpuLxq+UvyM63cdVMmQafrfHQKB+g2nJ3o6frVGZk4e0BO9qDl7Pb+mi4K/HD9yuq37a6THzhPI8v9spA17H7QviWsOYPpGVHbhjZ0zHY0vbLlw0FZ8QW4l61stBWc7rGPpGt9uPZpfma9X5FpUVfcPKwSfckj07+YiK0HNS4L6+0PP+ibTNqzKUx3emUz3u8os47Z9NbGDJYgzbIGHW8jWMrH99EWSZ/kDxSnJ8PDLegbztYO5FYQVCud3XT35YNt5nMP3GtAmt3WsujB8wzotb8chMkOThjEOLD3mSvu9Vuj1ybN3rbLej+l030rzNFPHJX9+/dHZ53RcuTiK1fALaM2SX4B9xrtk+CDejf9yrRwkPzpM5ByYN4rMJssJP48zcqwlIM65Gf8PWNr/ycLzM8258+fl23btgXH1RzxOURoZuHXzjjb3P4FyGStPO5xOhvywPJaS3M/eXpBjs3uEGPQ8qcl5qXEXe4ypK3djws3aGkKbll06dYOdLLPQ6dw9BLOvrL7SE9Kz16w0yVLGqBuF4HeN0mqwajMnozCFKxVY43WiSk9rTVtNtdl4bRpP+NzICO7ZCkbVUJCuaai5wD26sY9TsP2S7HP1V7NXLdkCMELmulf7Fqx68RBOTMW//Jvj4oPRhVUvI41Dn3Lckd0YpmeTiM38djwCUbodUm3eap9VC0X7T5rW1y7OFAiWGVry4yNtNGbBfeXNQnwayeHbW7/Ak174B53Iula+/72MQnKhP7qseKWgzTa5Svun56HQLk+IvvkmGkjIyNSCdx8sym+HKzKzPzO1tqJpvvqLGlGesVNf5t+5Ofh5alWfvr6P6R7qPgcIPGCHoJK4zO3sSuJe5xe6fTF3rysj4tMH4y+NuNrdeSPLVuVM5ZiwCcDGO1JCOkd94Gt56jXPrLaqT9ZpdqYzsicmJdg+8sr1kZekPGl+WB9Vl+c0qQMoLzspHB0lZP2cZryU5Wkrvu0a8gwY17QJpdMl8Nd0H63HEkZ0bB7j3mrP302eJHz1aM0qSwY9WqFs/1eg+WHZmQVCuItdiWD0Z72slHIgDNG0oaeYLQnmv8kSbs2BU0LFdcsCe2fKnpui+Keh6zJ3Jh17y1rdCcpMQvuL7vBAoi2z9wG9urGPe5UPZKuJV3jlgPQLkt526uwjA3qQzrpnmLLgXl+Wu1JMMV47UzqSm2kWPqZn3b/h/QOFZ8VQytMJ7QiuRXKvd5b6VYPB+s6tl88jvs3YWmtvYCOuM8+Seq3BgchwwbqqmI/rIF77pLVTv1RM/vcJ5Vm9bh5wd0lO9x3jNGbZGp8TbCGtxsX+9wnZaBKyU6ostJVWrrX24pN2Ln2PjNCAjbOymmZlj05lV+rx5dEdu0IXgTc+mOf+6SamD6VPeo1WEPL7jctyeTxPQl2JYBHg4q9tueYEWj5bPuSAmbnKcQ16x95R3yW2F/OGm3kk/2ruNdrnpKuQZ6iXGj+ZkHLktIuG20/fGakuiCPBlYOsOnM+M6guSbFgLQeTH5uyOL8koxP3ZTvQxlJhIrPiuAWehzbFSYJrYg2tl9uxQs6ZfM75Zh+IQxeRAxYwy7q0K0vjMv0SjgqNASjMUJ/gk5ewgjRtuRfi4IQ0n/ctiEvblsDYAa/fHaNo8adSSgjbeVmknLSdqd0Unb6/LP98dmTIcR5IcP6idomuQoge1Td/E7/Bny1BR9RTJ/rgEZp9wHT31qS460EGJcFtcROqKaXdrbM4R7o++HxkEU0Dgg7HgG2wCwYpusIpst3QbuswJOt52nYbpOkGEroL2s6KjhGXnQCbtxo2n5pntqonXsd8YI81V89zku7bLT98JmR6uLmWzfotbYfPrM4oaKsNaOTFIKb/t2g19p++MwCWjM+xmRu1wpHdRcIFZ8DxO5sbSn0EbB3zV0zPVb/kvwCqzPzpgutu3pPyOK6yK6dOyPbzmwszsuSb03QSLgMBSHVJa1t6CdoG/TXJ7Uh4/QhjZMbT5V+Yysqs+AqJvVY/cG5T3Fp30eP9ZwQL1Ydwk7ZQZsUrKkbR0fV4UPs2tzhLaPitB65dUulymycPd0awRoyKjt2YTZbRSazmbB0xYIRPF4gOFYwJFLNe9zZ3X6G2cedULfutbaZn26nuhfcX0aR1mKN4PqCDHvX3DXTY/UvyS+g91P0XK8F9jEpHJQTlE/8kuElazlYnQkVZU36TthEOubn7iOtZ9P6znnjjjNpi4KKzwGihdpFK0RekvxrsyrHl9ZkbQ3LesLtSZnFgk07dmB4hYxFHTrsJLY06d/deHT2ZOs+rqwvTMtOjq0npJH42iXbDL+JD3GDthOu1IaxnTLuG3m18YAsr22dvuuLK6SfqNIxSVEJM7jx2flI8kdRO9ud7R7Hee5HGk4wetEe2diZ0dljwWjIeSyi6+CrX5CqMxpqOa01uzYk1IVWYFRHRXSv3dCPvG8p51W2THU3kqBlKLS/jKj5oodHbjfRTvLPRd3Y7n3Hej7koA9kSy/gepQVgN9e/SPlYZeBXvMN12cpB5hBMSkrzZodURHsvExK/6zg+jz1enT2YPmzPhoMFZ8Vw64Q9rGNzywbOgVnRQQ7u08syuJxCV/YU6e6Z2MdOtSqjsbupZ3yXZvVzCbJHuZp0id8jW2nBhj2naRf+O4FUdLsgHvu0sm+F3x+9/N+RVFUGLtvsyrE6KwcnF5zdsvckMV9c7I2vSc2XXFQ8bUVkD5UCemOyuxWMen645J0vzy4ZbBTmezVPi+2f0X77eKmY5b0T6OXfOmO3XLAdCyWTP8j+2i3UblpalzWlh+I6eRq3aZAAbw2J4c1DVYPy5zn48lAwHDc7JOAGkzCWp1bRnyqTAQb3GWlkP4ymhutBvaxTdHVpAj/tJns1FwWYe8TJc2uS9Au2ZIGyo0PLVPu9ThPuqYp2PGrc1ztMuDmo0tSPGEOca/HuXtNoPQ8bd7ja6T0tOOQlAZVwc5LNz9ckuICc4h7Pc5j12Cau91BStpfoGLYcUhKgypQXcXnhJG82m1cU3O0QvgqR8+0dhGdl51YrP2YyLLEX9i7Z1WOn67o+neof25SptVJ2NkC3GPbPzVX7HPXLgn455M+4DZIeRsolMsk6Sf2PXz3tM1s87T45o17U0E6pKUF7Ow0BT4znDc5TTH6Z2WXLhUCGQs2iqvDF3YouVTB2asyUoE/6pftP+jlft2UIfca+zyLf2F+pkseer1e6Saf3Gvs8278K5JgFNz6gpzGx1dNm7E5kYUDiX2RYMTD2rI80JgRD7vlSLBpURT/ydOysF6RtdHPGrkpPMyNycagzwPBsWJviDQJg+Lotl7Z+P2w1+q0xDfiM5CTkn0ZtoL6y/r4RfDjj+Ji6IefncianRrnNPew1zjosZ4D28w2HwAogyhH+gvxETffkMWJsA2ZNHVMFfJVWHIM4egkeej1+rqAeOUuB+bdfh5tLGZuWulTVjnQ+6VJHnq9vkog7LnzE2t+n7aWSCm5f9C6b4rkodfri6Yaik+kgSuYZo1egWueBCr4wfCw7qBQ2JVAC0pShcnM6KycDCpe2EFbPbwsU63V9R2OYwRCdJxES5EKMb3Zqi2mbJcZuwxBkJRq5wI7W4Ae67VZ0WsqhFuO8pYrLY8+qRuIe7/DDf97rrsFYsdXjxE+O4wwt9254U+LE8zta32o/2n+DJSgrfR3NNypj1kWHR90fKHsspWSIK8y0geuV79t//p1v27TD9fg2k5onvrERfPTd6ykXd8rvjTOQhH50DOtvkhb7HqEOhavV1BCpSuWNA8g/UjvwrHW8Iorzdy4do57YUCxfMZIt/fq8xqfvnzVNLSx62AWfH4UTr/6y4iqHXScu2ZVQrPG/lXJCtxq/PCb59o+Y7dDbjlEGfPZ4VjLn+smSUJGZfaktiFtqcp3WDdctrjY8XKPlbTrq4bGwY6LgvD77HCscXPdJEmA53kKKbMcuPe2xcUOu3uspF0/CDScdngVhNFnh2MNv+smSULcel3S89+ife+t4mKH3T1W0q4vm5FLly4VGooTJ07IzXtvjs4ygpGaJ8PDAHS+Dhs5Epz5aadnNjB9J2vBMX5XIXNINoLK1Sm7UF66zVK9tpMf3drDPI1O4TbXZy2vdkNkg+vT7BS4SbtXJ/skslyXJXw2rp9Fhr0bt/jtRD/uP0wMY7ogzt0owKoAFHC+/LLz0T32YfvRqQwk2RdxXdIxSPMfdkl5aCs43WMftj+2ex+d7AHcJIV7GEnLx6qDsHfsT1QFBHWIy12t8ioNNNkaD/sYuOegk3vgXgN8dmrm4rseOPc7+omjsn///uisufSjTevkZ5K9bZ50DNzzjcWJYH8KjMYuegfspLA2jW7j2em6JHvbPOkYxM4xDRzDmwPGZWE9v1IwKTxNo9t4drouyd42TzoG9rnW25BpWUkYcJJGUnhszp8/L9u2bQuOqzPVHcpOPHQgGOlpT41RWTSiII622F+UfVKytpwMELfcQIDPXAX4zCHA/vXZJR1nwVdebSkQNA5uA2Gfq72a6S8aFoh97BPbvh/Y4dJjxQ6HfX/73D3uN/Y9NMxpQgjxo3XJrS/669Zt+7jf2PezUfOiw6BKTygtVfQcwF7duMeEEDIQuu3ioPmE4HqIntvi2il6T7W3sa+3ryEDJd/zNJzuv0+OyQr0AKRW5MvrVZmZ3ynrUf9vfUGcNffJoMmbn4eXp1r5uTK9JJMlrM9QHcUnFJN4KGFkZpISc9aID4wY3WME6ekT1orhwi03IO08yUwF+MwhIO0Y5S8Jt5x2kgLQhsdWGmxtjLYCd/Y1Wc4HgR0WDUPacad494Kdzorvfv0MAyFNwFeXXNy6bR/3u47Z97NRc59dt0B52WmUpqsMtY+p/CSEDAQ0w7YA99wHmk+7CdVzWxT3vBO2H3muI30j3/M0nBZc9ChPUg758nq3HDnZXiJk9KYpGV87E6iNSDXoJT9375kWOX227yq76m1uhCnuB8LDTJsVwc0xIxgbi/S0BWsMQYnK9nA40c6UXc/0vFNHCyRd77tOzVw7+1pgXw87FWCf+6QAfI2SzywNKBFUfOf9BPdAWPPeT92617jxzutvGnnSlBCSTNa61Gs9V3OfpJHFTVGoErMTSaM83ethT2UoIaTvoBm2BbjnRYNmGX7jt5wmmkTYz09X0sjihlQLO29dSSOLm0TWz8jaeEU3Va45dv65kkYWN342ZHF+Scanbuq7yq4ais9d0a+OcM0aa6QtlgbwuVelado6oaSZoFxA7M6UbQbUTs1tXLd6rmZq7kP9tNFrQafrSwINk6sMwLk2WD57BeYqvvN+4t4zL7jGbZRxrmbd+psV3/0JIdmw6w9+k+qqr57hXM1g77tWzX2SRpIbvacbliKwR2/iN0kh6hvlaSs7YZ90LSGEFAqaQhXgnqdhu00SF22W8ZvejJOCsZ+frqSR5Kafz1PSG3beupJGkpvOeR0qyqartqlyQ7Dzz5U0ktwk5ifWbA3Mx2Ru10opI7cHr/i0x7QeN2Kv7Qmlph5D7Kn/OEfajgdnW4EyNWlqPGk2KBcQu+yoGcC54pq7boGe22Y2eo2ix0n+ucCN/vqkQOyGR4/1PCvude551UC47IZYjzXMSQ01IWRw5G1Tyq7ndvjcY0Xv2et9bUVlFuDWVmbqsfpDZSchZGCgOdQm0T7uhLp1r7XNSC0p83lKBksReb06EyrKyty5nvjpKT93H2mZr++cN9fMxFR9/aAaIz53Rr8YnakPMAiUmva5XcBxriCVkL62uJsjcZ3P4cMuO0DLgn1uY7sFaq/X2ZIF17801K0rBaONjt0A6S/AMRor28xGr1NJMusX2qiq9EIZ4e1EWloTUjaqGEuTfqP1Oql+wixPvUnyp1fUX58UhaZ3kqISZnCTVYmZ5A8pD+xiOrFY0Q6p3cexxYfP3L3OFTJY7DdKbBZrn/f7bTMrRTfVLIO1wPccVSHNwpfHKllYnRmRSVmRTWo9K4EvH1XyMDp7UKbltJztc/do8IrPB4zsMIKHsPuAckd8QnwJ4lvf090giWOhhw+37GhZAHreCb3GFhefWR56vT4HnZSFqlBIcgdzW5LM+kWeRlXD0skdIaSNKsd8Ugad6jbqNezdtmZQ9VzDYYdHw9grndJdlZ6uQrqsvCL5GZ09JlPLhzPpmVZnJiSuI12VmWDXU+xk7NoVgBZZ/NrHSpbHu17rChk8WAwP71qKLo43Y6SpOoQ85TBL+SZ9pZ/PU1ItusnrQOl5ekHWqfSsHLnzE9Pc7V3cV4/LkuySHX3W141cunSp0NbkxIkTcvPem6OzDOCBm7QOJ9bpPBkeJuK4uffPPx8ddc8te9/DRrYk7vvzv4yOugf5lbljrfWxl+yFH77rk8wVj/2gyqs2TPZ1bgOV2mBFwM2995cTB194bLNO4dfzosqcG5Yk3HCUff+6MIzpUlSci1J0ZRnRqfd6xbO9a13y1vtOdRz4zGyS7Lu5DmZFtX9Z8tAe3emO9HTPQVl5VBfKbWOgnByTOXzAz8S4LKyflNYSVxuLMnF4h5yMXvCKCnvHvo/dT3H7LGl2IDIb9n54aXmVFbxnuZw2ovsruETvZEXlY8cyhF/gxtdXxhTXzvGjiLA//b1vyP79+6OzalLVflO3z1PbTM/T3frb2emVzWAadFXTp2gGGU9f/tik51+Inqe6Nc/E+/7fn4lMu4f5mY4vD2xS8yhCz9Pdbph4Ph4a9kCWeJ4/f162bdsWHA9W8Yk+OUZ8Jq3FmVfxuWgedj/1efk/f+WXIoP8/JkpbHWoFE0BlbuI/PJ2jrQjZNNtttp+JfmR1kkDHnt0zsosr2hwgLpPa5yAbZ8EXvzLiENSGOzrXDeuHc6LKnOdwqu4aVhWetWNsvOlChQV5yxKsyz4lGc2tj2UamXVe60/PreueZI7Jc2fTvjuU2Yeavon5ZNrXlYe1YWBtTEY2XB8j2dq3qrMjByXPZtHtgy421ickQduOmK6x6EC9P/6xX8tJOwd+yg+9BrY+46V6Pphf8YVVc5S86oXMOrzTHgoe4wkDJ4qqn+aGA9fGVK0LHZzraGIsNdF8VnFutbt89TFNbf9zRLmqqZP0QwynmXmNfMzG8zPOLbic7BT3fFlO20Dok5KT2C7Ub+QAN0KKR9fPmSVNGDtSrdk8aOT/0n2vnhllZygcbAbCD1OajRs+ySJHHQvGfHdG2LTya4FjruVnOh9Y2FSv7qRJuOLb1apK764ZJWCgMIMYh/7xLYP8IUpq2TErj8+XPMkd0qaP53EJnaO424lB6rUTFKSes1998wqTcQXz6zSLbuPyIrMb5mavrE4L7KyVekJhegDciAY/bl6+IwcPBLNSfaFKatkQZ3h1z7OSuw6c9CtNAFfvLJKv0D5w+jPm4xgb4UDRlC0YJY0ONwXvqzSiTQnsOtk3wlfmLJKnfCFP6v0CffZ6RMb91zxufNdnwrcdit1whf+rNIDdp4kiY17rvjc+a43Bt1LnfCFP6v0gJ3uSWLjnis+d77rjUH30gXV2NyoYHxpk1VI+fjyIas0AV+8skpV8IUtqwwCXziyShH4/M0qTcYX36xSV3xxySpFAYWZrVTLcg58YcoqTcIXv6zSb3z3zCpNxBfPrNILu48clDP7Ftv6pY1F2XfmoHdX2tWZ47LjpgdkYmREju+BYjSc/+4LU1YphCR/MJDDFoMvDFmlCfjilVUKB8uoQbm5bgTT2FGcsLcCwDHMYIcZdPYaoAZf+LLKoPGFKavUCV/4s8ow4It3VqkTvvBnlTrhC39WqRO+8GeVOuELf1bphoYqPuOa6TxCyseXD1mlCfji9fv/7a6W/Nc7/5v8l//6+3Lov8zL7x76iPyn//y78h/+438M3FUFN/x5ZBD4wpFVisDnb1ZpMr74ZpW64otLVukHSSM89dzGF6as0iR88csq/cZ3z6zSRHzxzCr5wVR23fhvUpbW5mRMz8fmZG1pMrILJVznf0POnl6SyX0iUysrMcWoL0xZJRNQWmZxGik3W+AalQhfGLJKE/DFK6sUDkZ1QrlpK9lhBqUnyhyUnbDDDDpnFp4vfFll0PjClFXqhC/8WWUY8MU7q9QJX/izSp3whT+r1Alf+LNKnfCFP6t0A0d8OkLKx5cPWaUJ+OL1OwcOyOZPNuVf/uVf5Pnnn5fnnzPy7HPy7LPPBnLn/H8N3FUFN/x5ZBD4wpFVisDnb1ZpMr74ZpW64otLVukHSSM89dzGF6as0iR88csq/cZ3z6zSRHzxzCpdMb4g6+ZiX6fdlVDJOSqzJzdlfWpZzqimajXcncY46Voy4brT8yRFZwq+MGSVJuCLV1YpnHDAcBzsr4Dhx6oMtTbXtfGFL6sMGl+Yskqd8IU/qwwDvnhnlTrhC39WqRO+8GeVOuELf1apE77wZ5VuSFZ8PvJR2bt3r3z0kei8RpguZNd/pHzs9M/71wTs+Nh/v/MfDsi/QOH53HPy7HPPBvKckf/2B3e23FQFDU83f4PAvn/evyKw/cv712TseOb9qyt2HPL+9QN3hKd7bmOHJe9fk7Djlfev39j3yvvXROz45f3ril07vHqnNDYWJ2TfmV1yejIcCTpxFosx1iAvLQWpfe+8f03Ajk/ev8LBiE7ozm1ZNnI4OsZGR8ejY3eqew9/g8YOS96/OmGHO+/fMGDHN+9fnbDDnfevTtjhzvtXJ+xw5/2rE3a48/51g3dX90c+ulfukg+bv7vkS2+5Xz50Q2SRgVy7uvcB7OT379777ugs5K7DfxgdifxrNIIuUCI9+6wcPnxXZBPyF5/7q1rs+NUUsKNXEfnVZfkfOL7y6vI7v/Mf5V//9V8C+aM/+qPINKQK5bWoPCwrDoMOb93SqyyGMV2KirNvNGYRQNmZ5Dd2DGc5rnYeMo/ilN7GbIQ7sp/0LeSZyIYsTozJ3Jo5nF5p7QRfVNgz9ZXcEZ4+fP5EU+WHvR9eal51C9bz3GUEU+ATKCofB9E/LyLsddnVfZjrWieGJX0YzxDGM4TxjNNxV/cbPnS/3J9H21kxEH9bDtz27+Vf//Vf5Zkf/1h++PQP5Qc/+Gf5wT//s9x1111b3JLycfNg2PLLjZMrzz77TDC9/Zlnnt1iVxXccA0yDzFCxsU1c8NQdnhdP9lGhbhxHYZ0ceMxyDjbozt1hKfPTHHDM6zl2I1b6enw5Kfkvs9diE7iuPcb9rbGjWNf02P9jMjOaEf2zIRT3dGRh9JzdWZEJqLt4N3w9C3scG8L8Jm5WObu/Yet3LlxqlT8MbLzmJE90XEKbth6jodPqe6a+dzYZPHD4IanqWXQDfuw1bVOuHFmOWA864AbdsazmHg2c43Pn5gOoyP/4cABeeaZH8s/f//7Rv5ZFv54weuOlI8vH4Ypv3zxsuXZZ54N5dlnt9hVBTdckLLz0FVu+hSgii8cZYbX5y/bqOFMF19cBhVnXctTJclM8YVpGMuxL35FpcNTn7slpni+71Rk0YlTdwQ/vnsOc1vji2e/0mPjrMjUTXknugOM+gynuc/vXJeTs6EfvjBVNS99YRimcueL18Djj3U8MdITKyegSGEwMY5hlrTGpyd8PcUDxm7XzGeWhusex57b+cLUxDLoC/8w1bVO+OLNchCXOuELP+MZlzrhC38/4zlUmxv9l9+bD7TGH/vYx732EFI+vnyADEt+aVzu/sM/DOT3f/9O+c//+Xflt//9bwfm4YZGzwTDvNWtSlVww6VSZh66Q93Thr7b97elrPD6/IUMexvliy+kyeniiwukzDjbijVbOtn5wgQZtnLsix+kqHR466FI8XxoKjLJwPUfCX5894QMa1vjiyek8PTYWJR9Z/ZIpLPMAXaCH5MzB03H3tz05Ox6sDM8cMOjUljYcRufAJ85JAFfGCDDUu588YIMJP4Y1akjO7Fzu10mcQwzAAUoxMIXPkhP8fDZqRnKlM/eV+58x3pu8IUJ0rQy6As/ZFjqWid88YawHLSlTvjCD2E821InfOGH9CuejVR8/sSkRpIc/cSfes1VSPn48kFlGPJL4/Jbv/Xb8vTTT8v3//n78r1L35PDh/8wMA8Vn9jg6LmWW5Wq4IbLljLyECNjVOxzPdZfPfaFQ6WM8Pr8VRnmNsoXX5WmposvLiplxfkeZ1RnFgG+MKkMUzn2xU+l+HR4WO5zFdHTd8oXj77LHN8iX3gychbhu6fKMLY1vniqFJoeo7M51/ZUdssRc6/2peE58IVJpZCww1leScAXBpVhKHe+eKmUHn+s4wlJK46wgwJUlaARvvCpFBIPdMlsAfaxouXNFpBkbvCFSaVJZdAXfpVhqGud8MVbheUglDrhC78K4xlKnfCFX6Uf8WzmiM8e/kj52Omf968J2PH5TwcPyve+9z1ZWFxsmf3pJz8px/7H/5D/59P3tsz0ryrYYcr7VwTBemhOI2ifq72ahXfu7q8IbP/y/jUZO555/+qKHYe8f4PGDkvevyZhxyvvX35ulPe5iuil2+WtH/hrc3yvvOPK0BWmyAP7Xnn/mogdv7x/g8YOS96/srHvnfevCdjxyftXJexw5f3LBJypAPfcxlaQqmLUZxZhhyXvX52ww533bxiw45v3r07Y4c77VyfscOf9qxN2uPP+1Qk73Hn/usGr+MSu7nv37pW7HhJ56C4c3yafvRhZ1gDoNroVUj6+fMgqTcCN0z0pw7pdqQq+sGWVItDRnC3Fpvm1R3i62PfPK0Xg8zerNBlffLNKXfHFJasMGl+YskqT8MUvq2Thi4eikZ2HlkODJz8ld9/zcHjcAd89s0oT8cUzqwwaX5iyStn4wpBVmoAvXlmlSvjCl1W2kKCgzAz8tAX4zCJ8YcoqdcIX/qwyDPjinVXqhC/8WaVO+MKfVeqEL/xZpU74wp9VusGr+Ax2db/flrvll7dHljXAHt2VV0j5+PIhqzQBX7yySlXwhS2rFIHPrzT/1a4bKQKfv1mlyfjim1Xqii8uWWXQ+MKUVZqEL35ZJQtb1vi88ldl3xs+nmmjI989s0oT8cUzqwwaX5iyStn4wpBVmoAvXlmlSvjCl1W2ACPb2FaEqjI0i5kK8JlDDL4wZZU64Qt/VhkGfPHOKnXCF/6sUid84c8qdcIX/qxSJ3zhzyrdMFSbG2URUj6+fMgqTcAXr6xSFXxhyypFYo/6VHCuIz/1175/XikCn79Zpcn44ptV6oovLlll0PjClFWahC9+WaVbrnjvH8jrvvQpeSo6T8J3z6zSRHzxzCqDxhemrFI2vjBklSbgi1dWqRK+8GWVjsCNLaCTGbDPkwQ/5rdbqRO+8GeVYcAX76xSJ3zhzyp1whf+rFInfOHPKnXCF/6s0g0jTz311CYUAz/5yU+MJ1u1qXnNz5w5IzfvvTnyvnzu/fPPR0fdc8ve9wRxIf3nvj//y+ioe5Bf2tGpG00or0XlYS9xSJ7SHvqpClH83nv/YNO8CulVRYYxXYqKs242VCaveHYjOuqeJpTjfuch1up8cPu98r7rzcmpO+Q++Uh4DPT89Z+S+/7u7fK+914VWYTX7XjX70Vn3dOktqbObUxRYS+jrzTs/fA65VUaReXjlnigu5Zk5rOz8Xf14pjriwj709/7huzfvz86qyZ1btPKYFjSh/HMDuNZHcqK5/nz52Xbtm3B8cilS5cKTZUTJ04MVPFZCObBWvXCQtoESq9hzq4GlFdVTPaC7YfPvyLuoRTpVzcM+v5VZRjTBXEehOKzCLBuJctxeh6mKj6VJ/2Kz/C6C/KFe/5Wdt36q3JFZAcevecOkwEfkTdivdC/uEZuu/XGyCYO8yhOndsYhL02faUh74fXKq/SMNHYEg/XrNO5ksUvH3BjM20Eu9xPGDlm5HB0PhP9Rhz9xNHKKz6LoM5tWhkMS/owns2C8WwTU3wePXq0+alCCCGEEEIIIYQQQghpPL/wC7/AEZ+pjMhQaMmbArT9cig6sbkj+m06DSivdfsyNejwDsuXvLyE6RKdDAlo/jjis96g3FY1D5lHcerc9iLstekrDXk/vFZ5lYaJRscRmRWFIz4JGJb0YTybBePZxh7xednzzz8vzz33nDzzzDPy4x//WH70ox/J008/LT/84Q/lBz/4gXz/+9+XS5cuyfe+9z357ne/K9/5znfk29/+tnzrW9+Sb37zm/KNb3xDnnzySfn6178uFy9eDDwlZOAMi9KTEEIIIaQb2FeqD8wrQgghpGsuu/zyy+UFL3iBvPCFL5QXvehF8uIXv1he8pKXyEtf+lJ52cteJi9/+csDLekrXvEKeeUrXymvetWr5NWvfrW85jWvkde+9rXyute9Tq688kp5/etfL9u3b4+8JWSAsHNICCGEEJIM+0r1gXlFCCGE9MRl0S8hzYCdQ0IIIYSQZNhXqg/MK0IIIaRnqPgkzYGdQ0IIIYSQZNhXqg/MK0IIIaQQqPgkzYCdQ0IIIYSQZNhXqg/MK0IIIaQwqPgkhBBCCCGEEEIIIYQ0Dio+CSGEEEIIIYQQQgghjYOKT0IIIYQQQgghhBBCSOOg4pMQQgghhBBCCCGEENI4qPgkhBBCCCGEEEIIIYQ0Dio+CSGEEEIIIYQQQgghjYOKT0IIIYQQQgipMiPRbxpwk8UdULeuuLhmeu5zSwghhFQQKj4JIYQQQgghpMpsGrGVjTh2BW4gis+Njbp3r1Pg3mcOYO76RwghhFQQKj4JIYQQQgghpOrYSkhVVqqZbWfjusuKrdRUpamaJR2TIWRDFicmZHEjOu2JIv0ihJA29VB8LhrBA3U1OAuZMKIPWsiMEUIUPDDt8mGXHRzbdp0erlr+VJRu/cGvS9I9QNp1BbGxOCEjIyMy4fY0NhZlwpjDDjJjp2OaXUlUO9zovLXvE8pMrCi23bjmpChMdpv0NY8Mp/6YohOYt8TzDNFrY2XEHNvXuf4m3Q8k2pnia4pBy09fmfSGpQCe+twtcut7rpO7P3chMol48lNytzGHHeS+U5E5SLMjhZGUN2oeyh3yaGTuhflISDMxz4Mt/UafWSeSrsGxrSi1ladq7jPrJ3h2Ilz2c7AJ74Orf2rCbgKuMvOVyKI6aH/b2wdZPSxzMiU3jYan3r756kxg5sqW/rvtV+waRxlqOkWJffm06yJS41M2i7/nz3e3XFQhrBZIwy35l5Mi/KgsFc8/l2HIz+orPpF2c0bGg7M4K0b0YXsEBuXSblRDsSnSTM/TzG3ymCmuvesWpLlXXDPXnc9ecd0Cn1kmxoxo+cDvpBGUJQiO142o3T4jSaCTtWxEyxlEmTeiZgtG0vxBxwxMR782afdIu64QQsXbPjkmK1vusSozY3Oya2VTNjeNGAdLk9qBSLMrg/qEe1rvFcgR2R2ZB2w8YLJ+WqbHl+R4xR+IdcQ8f4NqubWMhEyb+m+yJRT3GWLKxD7z7Bl3nj0zpv1YMO1HcA3aEeNGy0/a/dLsZkx7tUvDYn6XzD1iZTIhLL1xQb5w4DpTg/5AfvPdkVGLh+W+6Ttl+6HH5J7PGzk0JV88dIt84clOdsWyOhO2/xC7I6UvLIFYby1J7gOil6SkDlmSnwEdrkUGBR8wJhaRVRamvVE/E16+/KTnzYMPv1sOIe2N/Oa7l+Vj9zwc2bn0Kx/teMXjnSdvYm7T7LLmh8fcvm+WcHafZzUF3StXbPptpueueSr++tZV/d9i7i/baWU16b7+spdcd3KDviIE+H71GKSlsbp1r7GPfcDe9i9z/nUJEqqi74M9sWHan8n/aToWHzHhN4Ff2G46AR9HUakOpp6k9UFWjy/J+NRNMmoyKbFvvvuI6ePY/eEV0/sdlynVlka0/TJ1ZX6nrEfu18171tw+qx6l9fMTr4voEJ9SmZkxAbwYnVigXBz/ubBMbH4wNJv80/C3TJLaTpOiD5h313b+dW6Xt7Z3cT+S2tI8/YoWieEuiarkn0vG/MybFyHVz8/qKz4PG8EDrWIgU9qNdygwc+2KMANqBgG2O0ja9Ulmis8+jST37rV5/PW5zXN9DNQhPMxUw4RfnENJ8UB0rO007NaMJNUjdLJOhodbsM1vMgJ/koDb2fBwC53ukXRdIYzK7MlNOTmrCWKxelyWxhfkQCsdD8jC+JqcQTqm2ZVCXcMdZyN4QhyQA1PjskTNZ+HMmvpzssv6s2qePVBGTkXnAaadOG1+dmixM7+7okOQdr9EO5PtS6ZNapdJ895jzu0y6Q1Lz1wl7zj8mNz23quic4tTD8oXr71d3nl9dH79b8jea78s3/i6OU6zKxLTyTm+cz18BgRvLoeDph3m++Z2yUrwbDAvTkvz4ctOkvuI1cPLMrWQoAFP8jMi9Vq8ZI3sEzm44LyP4yVg0vRfwmfY5uZJ8TVXflLyRm6U9x3+VbkiOnvjW0ypOPeEPBWdB6NBD3wqPO9nPpp2VF8sN03BDqKWM29GTaUI0waybsp99BLcZX5sMTf+zJ/WcBr/zcP2MG6c6H/3eYY+SlI/Re3U3j0HvmOfG/vcxbVLcxtDFUYqehl++20G1AzSkYT6llDGlMxlBnjKdlpZTWqnvGUP+OpOFpBmKkCP3XTT9FV3IFca58B3r35R0ffBnlnvw1fDglk9DCXjsYQ+yKocN52YUNmR0jd32FicN32f9ijRENuv3XLEqh+jN03J+NqZ4FUuvS+fcl1EenzK5CumA7jdlOs90bnFqInckZ+NTl4XvrsOgMT+TzBwQ/MvuV1ObAeB7UdKW1p4n68MvPn3TybcgcHAyJSfefNCqUF+VlvxiRjjLVMbNheM3NMH7oALEkBmuahZml0Stn2nDm8nv1yS3Of1Jw2fXzDTeOA37X5dh+WsEVsbAXAO8x1GXAUlGiOf4kvLlJYxyAwMPOD6bh5Kee5RMhtnTeXbtcPqlI/KDpOOp89upNoNmvqEu/1lLOiYLR2PNfKk/2BkJZojSOzhbTJi0hSVVqdaMQXnoHnuThr3yKvFCVN2zPM5u0JrKxtRe2V7EZbJ6CQpLH3kqYumQbv6mpZyDYq411wtcvHihVS7QhmdlSOasKM7TBKdFlTT4GPBwoGoW7BbDpj0X37AWCS4D1idMd2FgzKL9t9Dop+gw7XBSxYUZJhlYBN0AK0Xs75wQb7wZ8tyzY1vt/KjTdn5mClvwPjOYFJGDKvD3FV+dMwnMC47zY0T/e9jnqE/Y/dp9LxTv852k3aN9qfULs3fzBTXHUwHQc0c3IT61k39z1RmPNgvd2n3jRGWvZ5Afth5oud2+umx6zYNvUbFxfXHdaP3ynq/bqjZ+2Audv9c+Dt3h+lUmIhi9N/4nuS4lg3qienoJLaLgRIyqg+ZWZXDc2syfdBR/Kf5tX5G1qJnR66+vHVdQKf4lMrPmnrzu+EsxTQ2vhy+u05HZaUsUtrI4DkajMwFCe3yFuLtYMyPEvt8g+OnUFQHR9b8zJsXEXXIz2orPjGV+Fh4uAWMhNMHrUm0jo1GyaDTmdY5tXHNfNe6HV499rntBp8/tv+unQvs3Xgprp2GPcm9Sx63HUFNwwcDREclaaQmlJn6i9tDloygA+aCsnowPMxFnnuQWrI02a5DsSH6WMdobVc4ejBo5DndvUwwAhPNCiT4uGieIZr8i6Y+L5hnT/QIjrH7iARTuKD8xGDtY30dkZ0elqFh46yczvNiFXO/EaThypFu3nJ6uBYvW2tzMhbV/ULX8T11R7Qu57vk/quXYiNDr3jvvXKPNSK0b1hxyzL1qDWFaeyMHPSMcgtG4LgvwVtIyo8Ec9ORPja1HIVzTM4c7DCCs8s8g1v0UbRvo2Z6DOxjoPad+jauG/tc/fDRyd8Y8MIW91KfWTfAD72HDczVrggy1f+Uut2hbCeWVfu+aWUvZ93piOaNpmNe9Dr3es0rV4DPHNIvTF7V9X2wM1B+fQQ6IdOpOB4aHezimdMXUE9Omz5IctuMqelbFJidcEdsRiT7hXB0cZ8t13WOT6XANHisDTmGcvFvrRGEZZDSRhq7UMfVIRVTn8Epfgysz9cnVldCXcMCvtAMii7zM3Ne1CM/q6v4xLqHu4xkSSR98Syg/1AU6HRC0LFRcOzrjLru3Gt91wB1Z7vtFp8/tv+QTui1th84znJtEr1e7wXr/8BLFYCOki6aDsHamtp5sssglKY6EkvBCE2UVa2Trj9pZL0HqS32Gp/29B908GR6T+ur1x6T75zuPhhM3yysduYZsmHq75ypz0kKkhlTr4/vQfto5KCpwua8iHdXH53CMhyYTs++ZZnK/KISd7+xuE+Wp/Trcj56uTZgeqVV91eml2S+qIJy/UfCdTmNHHrDx6XjBkeFg9Ed2q6tyK65fR3rwO4jkfv1nTK/Ze1MTG+clj0dEjopP9Lyaf2Medsw+YCPFUvzGdZT7DLP0Fex+z7qh2IfA7W3r/HhurHP1Y+egRe22OBWBdyihXuPIv0OyFb/k8tMp7KdVFa3tlP+spe/7nSFW6xwrpIVzSs7z+zfJLuiqfn7YEewFuDIHeYAHQtdC9C8WFSgO4h6MrfrYEofJFvbHQeKDF3H0ybZr9WZMROOFcmr+3Cv6xyfinEE60PqGpH/05ST3yutbKc9V8Ue9d6BxGdwoh+D6/P1BV3DF6O4Z18XGZZPd/mZIy9qkp/VVXyeMYKRb/qghqYcivKKTAP2kdaBhZ3bQe3U4VV87rJeWxZ2B1x/fXHOQ9fXYyg0psTY4Nw3RFo7Fqhd6DDhdhB8QVbsh4zrr5ZHKFOVJH/SSLvHgBiN5tu2g7Yh4eyS0VS7QVOPcKODZ36WJoNyDpkMzjndfdCsR88eNLGQOfPsCabEm7oORaS7Hic6c8tYO7hLRqP2ym4CollcqWHpJ1dsH4utG4kp1d86J7J9+1Wpdv0ALy7LU8cyv6jE3eML9JqszY0FdWzEVLLgeMuC7D7We7h2K2M7u1kLpTNXvPeD8lYT1m95lokrJx/x0SbHOsmjs3LQcY+13k63pj4lkZQfi4n5hAX057FmlHnrheJ1fWpZ9uXQMuXJM7sP5CMIm5EkcK26UX86ndvo9T67rkFwC/TOq3RLTpKuyFb/k8tMnK1lO6msuu1UtrKXs+4k4eaTm2c4dwVkzV+4s93i1863rP50Sw3fB3PxwN+Zf9tFjqFU/axp6qL1Ho8Pfmf3QGnV6qeORX0QcxzVlWCdztYH/IxAQbI2LQedh3qSX5gtMCkrQV1SsvTlfdd1ik91MeUCm17JRVNevhEa9ZX0vlNsSnMKae1gkh+D6/P1A1OHdbTuyVy1pGC6y888eVGX/Kyu4tMdlYf+Jxa1hjniiy+ACo5hnzFRi0A7mbZoh9O2szuhtlvgc9eNWR63ambTyd4lj3t1B0kjyc+s18dA24KOkdYL/OLc1+ag84SpMT5QnlCuVKmBthr+YCMjgE6XedD2tINkp3sMkt17ZHrNWog6mJodfY1Nsxs0dQg3pvnIdLS4c3v0x7Qx5aDPEjBpPGE9Q1ShiS+VmMqOJkgFGw1Nm2cPProHSkpTP+33VCiwoaTsGlP2zLuvVSZDBSfKZFpY+sr175S3Pn6nPHgqOj/1J3L/41PyJmyEk2ZXKBvBDqHoNNsjpbEebnvRc6wTplNrfO7DjRZadWxlWsYXwk64jd/P3ZmuTWRsp7Vub9h5K+QDC6a527u4Y5MiGZPXXBmexjY3KiMfTeWZN5UH63Yl5s3qjLT7qfjoY6/zZedhSL78mE3NpzVLqxS89BoSw9llnuG+in2stMIW2SW5t92ATucurl2a28yoskm7YPBSz9X7os26Ik/9Ty8zLayyHbK1rPrvG+IrezG2+N8FbroVkpYRaX4Vlm8ZwPMO91BBn7lC74PFcLHdsdDNjnYObnSY0hqpHwg29UIfxBwHdSVsI6dzdqCxVMTaFgWn369AeYnNcdy62aEvn3RdenwqxuLvGVElp/ldxs7v201HtYxykdZ3Ql657WAy/nbQ50d5fb5yMHk28XHz+29Nu/XrodHAyJuf+fOiNvl56dKlzSLlM5/5jAlZH/7Gjay0zuxHYGhX5J/xk9SHoAy4fygrdhkx9ST4w69tvmAk7c91n+SPil1G7T+U0SS3SffAX9p1+mfMumd90zz4t9zDdARCVqYt8/HNhfXIHKTZ5QR+5GOw4ca1nfGFMbyfabs3TeMduWuzvjBu8nzBXJlOtvsPH2G6tMVfRkK7advcuFu3rrMFfug1EOSd7d+4aUNst7YdRK9Ns9tEnbbM8VxXP21xwwKB+3s+/1gX8tebe6+N3xfy1kOR/aEpy/zNm3uXrGvT7HIIrk8kVk9D0Tpj50GrHqW4b2HctMzWFzbHrfrv9dMm8dqVeFkyou1QUJ/VvNU4bQX28bRJyxvXLp7+hz7w5k259vbNQ+pXj/kIO5dYvIzYUfOnYzyNYkmBfPO0ebnywyZm7rTB1n2S/O+UZzCvK0Gc6vKXmM4J9Q3lyDHfUj4ylJm0sh3cwy2riff1l71U/y0Ce9+fmifZZ/1Lu95nZ9/XtnfP3b80u27/kK54ZuqfhgECu4L+jh49GuVGCUxPm0y3ZOHJyKL/IN2yEZbpVpkNnoPTpkbadOibO8/dFj6/ArMUv2J1z/Kz03UtnPgkgGv7x5fj+a6i+R8rFx9BkPtGajztthPpu+WZndQPSngG+/xIbEthtdUszX0LO9wRcFcKK39i5Z0lJdXt1Hh2ys+8eVHx/Dx37lxLTzmCf+aiwjhx4oTcvPfm6KymjASpGJ2QqhOMBh3m7GpAeXVH+ladQYe3bulVFmG6RCdDApq/ez7/WHRWL7BBD8txWG6rmofMozh1bnsR9tr0lYa8H+7NK2MUM8N5J3xJ6Ppjo36qvXuPrNcpafeqOEc/cVT2798fnTWXbts0TGMeO3OwkNF0RfpVNHVu8/OQNZ7Iq8M7TuZeb9WmCD+6hfkZZxjy8/z587Jt27bguNq7uhNCCCGEEELIMOO+2+G8k/hIMgfudXrumrt0sicNI5zauuBuy94VRfpF+gvyalePy4MV4QcphuHLT4749DFint9D8DWgKUDbP9QdrgaU17p9gRt0eOuWXmURpkt0MiSg+eOIz3qDcssRn/Wgzm0vwl6bvtKQ98NrlVdpmGjUNR4c8UnAsKQP49ksGM82nhGfl8nHf/HlxtCSuctDK+XEiwPzuRPROSGEEEIIIYQQQgghhFSU2FT3X/vM9+XSpUgWno9MRU7MvVy2PfC8fObXIgNCCCGEEEIIIYQQQgipMJnW+PyFhbgilBBCCCGEEEIIIYQQQqpMTPH5yZvbU905pZ0QQgghhBBCCCGEEFJXIsXnT+SDf2NNc//M8/LJm18s1H0SQgghhBBCCCGEEELqiH+q+y88L79mrDb+v+icEEIIIYQQQgghhBBCaoRf8Xnicvmk/ERG/7fonBBCCCGEEEIIIYQQQmpEpPi8XOaitT0DuVnkM5d+JL8QWoa7uhvzmz+p64C+VD7O0aCEEEIIIYQQQgghhJCKEik+n5cFXd8zkLbSEwS7usfsfygf5GhQQgghhBBCCCGEEEJIRfFPdSeEEEIIIYQQQgghhJAac9nzzz8vzz33nDzzzDPy4x//WH70ox/J008/LT/84Q/lBz/4gXz/+xjheUm+973vyXe/+135zne+I9/+9rflW9/6lnzzm9+Ub3zjG/Lkk0/K17/+dbl48WLkLSGEEEIIIYQQQgghhAyOyy6//HJ5wQteIC984QvlRS96kbz4xS+Wl7zkJfLSl75UXvayl8nLX441PbfJK17xCnnlK18pr3rVq+TVr361vOY1r5HXvva18rrXvU6uvPJKef3rXy/bt2+PvCWEEEIIIYQQQgghhJDBMXL+/PnN6LgQHnnkEbn55pujM0IIIYQQQgghpB4cPXpUPvCBD0RnhBBC6si5c+eCQZygP4rPvTVXfI6IbG4Wmiykj4yMmAw7FJ3Y3BH9Np0GlFfkYZ3iMOjw1i29yiJMl+hkSEDzd8/nH4vO6sWt77mO5diAclvVPGQexalz24uw16avNOT98FrlVRomGlLTbDz6iaOyf//+6Ky51LlNK4NhSR/Gs1kwnm3Onz/fUnxepmt1Yp1OrNH5T//0T3LhwoVAO/rEE0/IP/7jP8rGxoacPXtWHn/8cXnsscfk0UcflX/4h3+Qr371q/KVr3xF/v7v/15OnTolb//oB+TDXzoaeEzIQBkWpSchhBBCSDewr1QfmFeEEEJI11yma3VinU6s0flTP/VTctVVV8nVV18t11xzjfzMz/yMjI6Oyo4dO+Taa6+V6667Tt74xjfKv/k3/0be9KY3yc/+7M/Kz/3cz8n1118feUnIgGHnkBBCCCEkGfaV6gPzihBCCOmJy6JfQpoBO4eEEEIIIcmwr1QfmFeEEEJIz1DxSZoDO4eEEEIIIcmwr1QfmFeEEEJIIVDxSZoBO4eEEEIIIcmwr1QfmFeEEEJIYVDxSQghhBBCCCGEEEIIaRxUfBJCCCGEEEIIIYQQQhoHFZ+EEEIIIYQQQgghhJDGQcUnIYQQQgghhBBCCCGkcVDxSQghhBBCCCGEEEIIaRxUfBJCCCGEEEIIIYQQQhoHFZ+EEEIIIYQQUmVGot804CaLO6BuXXFxzfTc55YQQgipIFR8EkIIIYQQQkiV2TRiKxtx7ArcQBSfGxt1716nwL3PHMDc9Y8QQgipIFR8EkIIIYQQQkjVsZWQqqxUM9vOxnWXFVupqUpTNUs6JoQQQipINRWfi0bwAMWvzYYRfbhCVo0oaXZk+EgrDzi27eA2DS2PKkq3/rjlGiTdA6Rd1wc2FidkZGQkkpl20q3OWOYjMrHYKcLlU62wb8jiRPueoVhhClA3rjkpig1Tb0zSmzyPDCJMUQnMWzITWVjotTN25phj+7pWUXLMVfS+6pdKLL+NH6YYtOxi9zOkXtsjT33uFrn1PdfJ3Z+7EJlEPPkpuduYww5y36nIHKTZkcLoKm8c1I9Q7pBHI/MA5iMh9cU8C7b0G31mnUi6Bse2otRWnqq5z6xf4FnqCyceiLZ59MwlhBBCbKqn+DQvowHT0a/NmJEVI3i44nfSiL50ptn1ibhCw34Kt+1sujXT8zRzmzxmimvvugVp7hXXzHXns1dct8Bnlomk8gDB8boRtdtnJAl0oJaNwK2KMm9EzRaMpPmTVq7T7pF2XR+A4nBseUrWNzdlM5AjsjuwWZWZydOysB6Zr5sIz+1rK30qQFXDPr2i4bHDFLHxgMn6aZkeX5LjRWqzSACUm6iWKwn1Z9rUf5MtoRyJDBVTPvbNiYyPR+fAmE2Y9mPBtB/BNeZ6U5TCR43J2JZfkeC2UzfBUuSwqeOmCAbmCM+kpWidMe3VLg2L+V0y99DyCaXnmHUtJFaGuuaCfOHAdXJM/kB+892RUYuH5b7pO2X7ocfkns8bOTQlXzx0i3zhyU52xbI6E7b/EPtjRewDh6UlTnIfYBJywmcekeRnQIdrk+6bGp5Uus0bl4flwYffLYfgzshvvntZPnbPwy277vPRtKlRvAKZWAzrgCFP3sTcptllzQ+PuX3fLOGMx22iUs+4voDulSs2/TbTc9c8leiDoZWfoKv636HMlGmeG/MsaPUXfb96DNLSWN2619jHPmBv+5c5/7ogrZ9s9+nxa57bsYJBCCGEGKqn+DxpZDY8jIF+KV5A9Y0PvzjHQy7Nrk+gw9JWZoQCM9euCDOgZhBgu4OkXZ9kpvjs00hy716bx1+f2zzXx0grDw9Ex6NGAOzWjCR1ktCBQpn0YZtDuQF/kkgq16DTPZKuK5xVOTy3S1ZOzraSp8XGWTktu2SHWozuMGdVop5h33jA9OSnDsiBqXFZouazcGZN/TFFoitWD4fKyKnoHGyY9mPNtB83We3HtKn3D3jaD/M+LUuW2yMmLK3L9ph/p40bnJhsh7sDVnu1YM7PRM+vw6Z9WLGuLY6r5B2HH5Pb3ntVdG5x6kH54rW3yzuvj86v/w3Ze+2X5RtfN8dpdkViEvD4zvXwGRB8rDgcNO0w34e6HjwbVmR6aT5UTiW5j1g9vCxTCwka8CQ/IzpdmxTOtPCk02XeGIIRngc+JU8FZzfK+w7/qlwRHIu88S2mNJ97IrTrNR/HF9ofmbTdzZk3o6aCBmaBrJtyPy5TqDBd5scWc+PP/GkNp/HfPGwP48aJ/kOhNmkqnIbppMxmrHjooyT1U9RO7d1z4Dv2ubHPXVy7NLcxbGUSRC/Db7/NgJpBOgLF9D6RgwtBV65FQhlTMpeZ1RmZbJWZFdmlH0mT/M9rnuR/FpBmKkCP3XTT9FV3IFca58B3r36Q1E/WtNN6WvyDkhBCSEOozxqfZ4242gqcwzzNrkTQwXFRszS7JGz7Th3eTn65JLnP608aPr9gpvHAb9r9ug5LWnnYYcRVUKL37FOSa4dKO3UQz3TYAFwf64VnJM89+k2gIFySyaisBaIjYUZn5eA07DAlO3w5PL1wLPNLYd+pZdg3JNB7mhf90ZumZHzpePhiREoDIytNUQkk9vJpMmLytKWMjBiN2g+7udhpKSltoLCcPuh/D1ucN83FVGhnim7QPtnudpjz0zA3YTLBMGW3HU7flPyieeqiidDV17QUZlDEveZqkYsXL6TaFYqpt0e0kgYfK07LWZMewceChQPRd63dcmBBZBma5wT3AVA2yEGZRf55SPQTdLg28b62ORjfGUxE6JXu0/+CfOHPluWaG98eXNuPfMyUN8CXFsHo96ngQ0FX+dEpnwLGZae5caL/QRgWttT7IkB/xu7T6DmeVUm4btKugZltl+ZvZorrDqaDoGYO7m45AoW0W4C6qf8e842zp03bfFPUHu+WPdNrYfueVIaz1H+7/UryPwvIDztP9NxOPz123aah16i4uP64bvReWe+XF81HO4z6HERCQm+tYcIsKVOfYw9UQgghxMDNjfoEOp1pnVMb18x3rdvh1WOf227w+WP779q5wN6Nl+LaadiT3LvkcdsRvNBoJ0klaaSmdkbxi9tDloz4tFOY9n4wPMxFnnv0m/UzJinG21PCg5Ewk631Bncf2ZSVQIE4JnOmZ3nMfgkYNBUO+9Jkuw7FprWtHpa5tWgkavBixOnuZYLRoGhWIMGAHPMWq8kPxeTCMc+7k2k/gmnqpt0w2RnInK/9MB7FRnECY9a6ZlfGkaimXYD3ran1Rkwx3rIGaOPBh43xUCmWiZj7jSA/V450o83Kea0TztaU1rEzctA3Gr0PXPHee+Uea5SnnLojWsPzXXL/1Uv+UaTdsDYnY4ibkSzTdTulxerhOdl1sFMaJeVHgvnorBybWo7COSZnDnYYwYnniBWvrGsvw2343IkrHvUY2MdA7Tv1bVw39rn64aOTvzHghS3upT6zboAfeg8bmKtdEWSq/8l1e83RRJ6ONKgd63NSO+WYJ/nfNZo3mo550evc6zWvXAE+c0g/0OTCr4bR7idjmRpb+VnaLClCCCF1gorPPoFOJ8TulOLY1xl13bnX+q4B6s522y0+f2z/IZ3Qa20/cJzl2iR6vd4LOknwUgXg0z3WEELQIfhqrCMK7E4sOlfuSGJ8ecaIUu0/u/6kkfUeZTC2U8ZNRFpTwoPRCNopD9c9O74nKg8Hz5iXwwqtf1bhsNtrfJ603rpXj5ue+/SeqNiE4eV098Ewal6UgmpnysSGqb9QTCYpSHab9gNNkgquwygyG7xQm/fc+IuxyWi9Zn0n2rb2e1sixl8MJG+Xa4nKdXQyFGzI4r5lmTqWVXEYd7+xuE+Wp3R0Xz7yXbs1nPjgEtR9k+Hzg2ovr/9IuIankUNv+PjWDY66AqPutF3LNl03PS1W5fjStOzpkNBJ+ZGWT+tn1tAIBx8slubja0J6MW61vcbHsvmMmYa+it33UT8U+xiovX2ND9eNfa5+9Ay8sMUGtyrgFi3cexTpd0C2+p9kPjp7TBZOT7byc9I8pndFDXB6GU5qp+Lmaf4XiluscK6SFc0rO8/s3yS7ounUT0acsHwM7o8BCDjPVm0JIYQMEfVRfGIqCub82eAc5ml2JaKdUR+wczuoae5tfO6yXlsWdgdcf31xzkPX1+cpD6p5QIcKX4lxO4i9lpDdgXL91ek29sYoSf6kkXaPUrGmh5lAnY3CsrE4L0vj1hTA3UfMS+Fae/phJahT2PGib36W4i9AwunuA2f9jPln8gJNLAQjOoMp8b4p5iazkG2x91ZTrJbNNQdTRp3YitbRqL2ySyPK7i6rvWqX69Cu31yx3bxp6lqQARfkW+dEtm+/KtWuH6zOjMnyVPalKeLusZzEmqzNjYX1zFSy4DjTkNn1XNemhtNk+ME8U1pT6CX9r3jvB+WtJl7ferI3f+LknK7rSQu00adbU8+TSMqPxcR8wgZG81hn8cjuQGm1PrUs+3Jon8ewjkVG7D6QjyBsRpLAtepG/el0bqPX++y6BsEt0Duv0i05SboiW/1PLjPoDM6ejBScRlamw+URYnjKcFL932qewf+8uPnk5hnOXQFZ8xfubLf4tfMtqz+9YlddfQ5ioAGqaat/ZwQPV6znTwghhFjUR/GJhxnm/Ok7B35xDvM0uz6BDot2QlVg5tqpGbDdAp+7bszyuFUzm072LnncqztIGkl+Zr0+Rp7ygN0gsR6QD3RU0aHSDhQ6XfAn2qU5UHqi8+XuBp2HTvcok9GbZGrcUghivbO1cLOJUSw6uHamNeMIiQrFXV9GKnRD3cK+elyWTO883FxDZcWYcLp7KZg0nsALUwRGeepGRO6ITmw0FOz+7qnnM6b9GDfth920YFOkNfPiFWtuzP1iilNz3lKYGofmHTrcdAWYXyhbg9Fvxn7K3H/Zah/M+3prp/i+cf075a2P3ykPnorOT/2J3P/4lLwJG+Gk2RXKRrBzMxRX9khprIfb3rgEm5qF6+T63ceVDJsr0ya/QkWYjd/P3ZmuTQqnrM5YSxKgzSlAwQE6pH9scyNMc2/t4m7AhkYyJq+50hwXlY+m8sxHcUvMm9S0sPMwJF9+zKbmkz2tOBj9aUgMJ2YOtD4+hUqzLM8J3Fexj5VW2CK7JPe2G9Dp3MW1S3ObGXS9VAC81HP1vmizrshT/9PLTAusAXo6mqKeWIYT6n+iuYXtf7e46VZIWkak+VVYvmUA6ZPUT8YHwrBatwkeruEhIYQQ0uL8+fObRck1//4XAzEPwe7/xo2Ej9G2rBjBH35tc9NPaf2l2eX9M9eT+hDkt/uXVB7wa5svGEn7c90n+aOiZdX9SyvXSffAX9p1+mfMCmN9YdP0L6N7jW8urEfmBvNu0A6DEfOiENn0TiFxKDHs2cK7vrmwJf/CcCE8vjCsL4ybPF8wV6aT7f7DR5gubdma/rKpM1mnbXPjrrU8rCPwozX71dTNdhlDHsbdqj3eoWPmRtywxNygTifZOfd0/YbZPZ9/rAv5682917b9VXnrocj+0JRl/ubNvUvWtWl2OQTXJ7Iybd0jFK0zdn1u1aMU9y2Mm5ZZ0F602wmvnzZJ1ybedyVWxqZXgiu9wD6eNt3nzaEPvHlTrr1985DXn/z5CDuXoJ1qXRePmz8dU9IC6edp83Llh03M3GmDrfsk+R+LmyfTYF5XgjjV5S8xneNlCRJkU2I9tMhSZmL9iGlzNyWhDCfdN8k80f84gb3vT82T7LP+pV3vs7Pva9u75+5fml2eP/Pca90LgnP9s+pyIJ369Rn/jh49GuVGs0GakWSGJX0Yz2bBeLY5d+7c5qVLlwIZgcLSXFQIb//oB4LfJ+7+m+C3towEqRidkKoTjAYd5uxqQHl1R/pWnUGHt27pVRZhukQnQwKav3s+/1h0Vi+w6Q7LcVhuq5qHzKM4dW57Efba9JWGvB/uzStjFDPDeSd8Sej6Y6N+qr17j6zXKWn3qjhHP3FU9u/fH501lzq3aWUwLOnDeDYLxrPN+fPnZdu2bcExNzcihBBCCCGEkKrivtvhvJP4SDIH7nV67pq7dLInhBBCBgwVn4QQQgghhBBCCCGEkMZx2U//9FVy+xeiM4sv3H6VwC6UV4vr5NyfXhnY+a4lhBBCCCGEEEIIIYSQQXLZJ2+Jjiyg9Pw1+bacP38hkm/LOyK7gHMvl9/+yx/JHZ5rCSGEEEIIIYQQQgghZNB4prq/WP7m3h/JJ+/8UXTucrn86W+/WH7pj74v10QmhBBCCCGEEEIIIYQQUiW2Kj7PXS7/6/rL5b+3prkbuf3FkSWmuL9a/vKXvi2/fnVkQAghhBBCCCGEEEIIIRXDv7nRqefl/7amud9y76vDtTwxxf0jxu7Xnw/dEUIIIYQQQgghhBBCSAXJsKv7j+QXdS3PJy6XU/Ji+bVoJOiv3Sty769dJf/uTy+PHBBCCCGEEEIIIYQQQsjg2ar4vPpH8kvXv1j+RndrP/dy+e/3Pi9jWNDzHfaGRxcEGyPd8skL8hccAUoIIYQQQgghhBBCCKkQl+mozZ/+6SvlT8/B6Hn59T/6vvyvwMzI//Fy+d8/+STX9CSEEEIIIYQQQgghhNSGy9ojOC3l5tXfl7+wRnbe+Y7I3OEddybbEUIIIYQQQgghhBBCyKDIsMYnIYQQQgghhBBCCCGE1IvLvvWtb8k3v/lNefLJJ+XixYvyT//0T3LhwgU5d+6cPPHEE/KP//iPsrGxIWfPnpXHH39cHnvsMXn00UflH/7hH+SrX/2qfOUrX5G///u/l1OnTkVeEkIIIYQQQgghhBBCyGAZOX/+/GZ0XAiPPPKI3Lz35uispoyIbG4Wmiykj4yMIMOik2GkAeUVeVinOAw6vHVLr7II0yU6GRLQ/N3z+ceis3px63uuYzk2oNxWNQ+ZR3Hq3PYi7LXpKw15P7xWeZWGiUZd43H0E0dl//790VlzqXObVgbDkj6MZ7NgPNucP39etm3bFhz3R/F5c80Vn4QQQgghhBBCho6jR4/KBz7wgeiMEEJIHcEs9pbi89KlS4UqPk+cOCF79+6NzgjpPyPBJ+XhZXOoh7sSMtx87C8fj47qyW/+0rXR0fBS5Txk/jSHuvWVhrlvM+z92iowLCM+MRrqp3/6p6Mz4jIs6cN4NgvGsw3cqOLzsueff16ee+45eeaZZ+THP/6x/OhHP5Knn35afvjDH8oPfvAD+f73vy+XLl2S733ve/Ld735XvvOd78i3v/1t0bVBv/GNbwTrg379618P1gglhBBCCCGEEEIIIYSQQXPZ5ZdfLi94wQvkhS98obzoRS+SF7/4xfKSl7xEXvrSl8rLXvYyefnLXx5oSV/xilfIK1/5SnnVq14lr371q+U1r3mNvPa1r5XXve51cuWVV8rrX/962b59e+QtIYQQQgghhBBCCCGEDI7Lol9CCCGEEEIIIYQQQghpDFR8EkIIIYQQQgghhBBCGgcVn4QQQgghhBBCCCGEkMZBxSchhBBCCCGEEEIIIaRxUPFJCCGEEEIIIYQQQghpHFR8EkIIIYQQQgghhBBCGgcVn4QQQgghhBBCCCGEkMZBxSchhBBCCCGEEEIIIaRxUPFJCCGEEEIIIYQQQghpHFR8EkIIIYQQQgghhBBCGgcVn4QQQgghhBBCCCGEkMZBxSchhBBCCCGEEEIIIaRxUPFJCCGEEEIIIYQQQghpHFR8EkIIIYQQQgghhBBCGgcVn4QQQgghhBBCCCGEkIYh8v8DU7WjE3sse1AAAAAASUVORK5CYII=;" vertex="1" parent="1">
          <mxGeometry x="-1100" y="80" width="1342" height="200" as="geometry" />
        </mxCell>
        <mxCell id="X4vXFXuKC3ZYve2AUPkK-5" value="When the production line requests material, PSA records the related information In Excel.&amp;nbsp;&lt;div&gt;One specific material may be delivered several times&lt;br&gt;&lt;/div&gt;" style="text;html=1;align=center;verticalAlign=middle;resizable=0;points=[];autosize=1;strokeColor=#d6b656;fillColor=#fff2cc;" vertex="1" parent="1">
          <mxGeometry x="-1095" y="290" width="500" height="40" as="geometry" />
        </mxCell>
        <mxCell id="X4vXFXuKC3ZYve2AUPkK-6" value="For one specific raw material, when it is requested and reserved&amp;nbsp;by &#39;Production Line A,&#39;&amp;nbsp;&lt;div&gt;And it should not be consumed by &#39;Production Line B.&#39;&lt;/div&gt;" style="text;html=1;align=center;verticalAlign=middle;resizable=0;points=[];autosize=1;strokeColor=#b85450;fillColor=#f8cecc;" vertex="1" parent="1">
          <mxGeometry x="-1080" y="430" width="490" height="40" as="geometry" />
        </mxCell>
        <mxCell id="X4vXFXuKC3ZYve2AUPkK-8" value="&lt;span style=&quot;color: rgb(32, 33, 36); font-family: &amp;quot;Google Sans&amp;quot;, Arial, sans-serif; font-size: 28px; text-align: start; text-wrap: wrap; background-color: rgb(255, 255, 255);&quot;&gt;scenario&lt;/span&gt;" style="text;html=1;align=center;verticalAlign=middle;resizable=0;points=[];autosize=1;fillColor=#FF99CC;" vertex="1" parent="1">
          <mxGeometry x="-1080" y="370" width="130" height="50" as="geometry" />
        </mxCell>
        <mxCell id="X4vXFXuKC3ZYve2AUPkK-9" value="PO:10086000" style="text;html=1;align=center;verticalAlign=middle;resizable=0;points=[];autosize=1;strokeColor=#9673a6;fillColor=#e1d5e7;" vertex="1" parent="1">
          <mxGeometry x="-1090" y="518" width="100" height="30" as="geometry" />
        </mxCell>
        <mxCell id="X4vXFXuKC3ZYve2AUPkK-10" value="Mat:10086000(finished good&lt;span style=&quot;background-color: initial;&quot;&gt;)&lt;/span&gt;" style="text;html=1;align=center;verticalAlign=middle;resizable=0;points=[];autosize=1;strokeColor=#666666;fillColor=#f5f5f5;fontColor=#333333;" vertex="1" parent="1">
          <mxGeometry x="-1090" y="700" width="180" height="30" as="geometry" />
        </mxCell>
        <mxCell id="X4vXFXuKC3ZYve2AUPkK-12" value="Mat:V62195B 280B 31A21_NoBatch_TO1456(raw material&lt;span style=&quot;background-color: initial;&quot;&gt;)&lt;/span&gt;" style="text;html=1;align=center;verticalAlign=middle;resizable=0;points=[];autosize=1;strokeColor=#82b366;fillColor=#d5e8d4;" vertex="1" parent="1">
          <mxGeometry x="-1090" y="610" width="340" height="30" as="geometry" />
        </mxCell>
        <mxCell id="X4vXFXuKC3ZYve2AUPkK-13" value="Mat:10086001(finished good&lt;span style=&quot;background-color: initial;&quot;&gt;)&lt;/span&gt;" style="text;html=1;align=center;verticalAlign=middle;resizable=0;points=[];autosize=1;strokeColor=#666666;fillColor=#f5f5f5;fontColor=#333333;" vertex="1" parent="1">
          <mxGeometry x="-700" y="700" width="180" height="30" as="geometry" />
        </mxCell>
        <mxCell id="X4vXFXuKC3ZYve2AUPkK-14" value="PO:10086001" style="text;html=1;align=center;verticalAlign=middle;resizable=0;points=[];autosize=1;strokeColor=#9673a6;fillColor=#e1d5e7;" vertex="1" parent="1">
          <mxGeometry x="-700" y="518" width="100" height="30" as="geometry" />
        </mxCell>
      </root>
    </mxGraphModel>
  </diagram>
</mxfile>
